<svg width="30" height="30" viewBox="0 0 30 30" fill="none" xmlns="http://www.w3.org/2000/svg">
<g clip-path="url(#clip0_501_2903)">
<path d="M15 0C12.0333 0 9.13319 0.879735 6.66645 2.52796C4.19971 4.17618 2.27713 6.51885 1.14181 9.25975C0.00649921 12.0006 -0.290551 15.0166 0.288227 17.9263C0.867006 20.8361 2.29562 23.5088 4.3934 25.6066C6.49119 27.7044 9.16394 29.133 12.0736 29.7118C14.9834 30.2906 17.9994 29.9935 20.7403 28.8582C23.4811 27.7229 25.8238 25.8003 27.472 23.3335C29.1203 20.8668 30 17.9667 30 15C29.9957 11.0231 28.4139 7.2103 25.6018 4.39819C22.7897 1.58609 18.9769 0.00434263 15 0V0ZM15 29.0625C12.2187 29.0625 9.49986 28.2377 7.1873 26.6925C4.87473 25.1473 3.07231 22.9511 2.00795 20.3815C0.943593 17.8119 0.665109 14.9844 1.20771 12.2565C1.75032 9.52868 3.08964 7.02298 5.05632 5.05631C7.02299 3.08963 9.52869 1.75031 12.2565 1.20771C14.9844 0.665102 17.8119 0.943587 20.3815 2.00794C22.9511 3.0723 25.1473 4.87473 26.6925 7.18729C28.2377 9.49986 29.0625 12.2187 29.0625 15C29.0582 18.7283 27.5752 22.3026 24.9389 24.9389C22.3026 27.5752 18.7283 29.0582 15 29.0625Z" fill="#898B91"/>
<path d="M25.0591 9.16638C25.4013 7.94763 24.3865 6.43357 24.2693 6.26482C24.2262 6.20245 24.1686 6.15148 24.1014 6.11628C24.0343 6.08107 23.9596 6.06268 23.8838 6.06268C23.8079 6.06268 23.7332 6.08107 23.6661 6.11628C23.5989 6.15148 23.5413 6.20245 23.4982 6.26482C23.1513 6.78084 22.8931 7.35119 22.7341 7.95232C22.5279 7.73435 22.3123 7.5281 22.0896 7.33122C22.1748 6.94189 22.114 6.53482 21.9185 6.18747C21.2927 5.08591 19.5045 4.73201 19.3029 4.68747C19.227 4.67195 19.1484 4.6755 19.0741 4.69781C18.9999 4.72011 18.9324 4.76047 18.8776 4.81527C18.8228 4.87008 18.7824 4.93761 18.7601 5.01184C18.7378 5.08607 18.7343 5.16466 18.7498 5.2406C18.7873 5.44216 19.1412 7.23044 20.2427 7.84919C20.4843 7.98616 20.7573 8.05803 21.0349 8.05779C21.1675 8.0569 21.2996 8.04118 21.4287 8.01091C22.4186 8.9016 23.2104 9.99018 23.753 11.2062C24.2957 12.4223 24.5769 13.7387 24.5787 15.0703C24.5831 17.0087 23.9593 18.8964 22.8007 20.4505C21.6421 22.0046 20.0111 23.1414 18.1521 23.6906L17.6834 23.8218C16.7539 24.0412 15.8533 24.3684 14.9998 24.7968C14.1485 24.3689 13.2503 24.0417 12.3232 23.8218L11.8545 23.6906C9.99415 23.1427 8.3616 22.0064 7.20165 20.4522C6.0417 18.898 5.41688 17.0096 5.42087 15.0703C5.42173 13.7392 5.70192 12.4231 6.24331 11.2071C6.7847 9.9911 7.57524 8.90223 8.56384 8.01091C8.69293 8.04118 8.825 8.0569 8.95759 8.05779C9.23526 8.05803 9.50824 7.98616 9.74978 7.84919C10.8513 7.23044 11.2052 5.44216 11.2427 5.2406C11.2579 5.16536 11.2543 5.08755 11.2323 5.01401C11.2104 4.94047 11.1707 4.87345 11.1168 4.81884C11.0628 4.76422 10.9963 4.72368 10.9231 4.70077C10.8498 4.67787 10.7721 4.6733 10.6967 4.68747C10.4951 4.72497 8.70681 5.07888 8.08806 6.18044C7.89263 6.52779 7.83174 6.93486 7.91697 7.32419C7.68259 7.52107 7.47634 7.72732 7.27244 7.94529C7.11133 7.34372 6.8507 6.77334 6.50134 6.25779C6.45822 6.19542 6.40061 6.14445 6.33346 6.10924C6.26631 6.07404 6.19162 6.05564 6.1158 6.05564C6.03997 6.05564 5.96528 6.07404 5.89813 6.10924C5.83098 6.14445 5.77337 6.19542 5.73025 6.25779C5.61306 6.42654 4.60056 7.9406 4.94041 9.15935C5.05852 9.57593 5.33654 9.92893 5.71384 10.1414C5.52996 10.4922 5.36565 10.8529 5.22166 11.2218C4.82505 10.6645 4.32641 10.1873 3.75212 9.8156C3.68833 9.77647 3.61608 9.75318 3.54144 9.74769C3.4668 9.7422 3.39193 9.75466 3.32309 9.78403C3.25426 9.8134 3.19345 9.85883 3.14576 9.91652C3.09808 9.9742 3.0649 10.0425 3.049 10.1156C3.00681 10.3172 2.65994 12.1054 3.44744 13.0945C3.58597 13.2683 3.75836 13.4121 3.95417 13.5173C4.14997 13.6225 4.3651 13.6867 4.5865 13.7062C4.53616 14.0574 4.50409 14.411 4.49041 14.7656C3.57166 14.175 2.19587 14.2078 2.02009 14.2148C1.94432 14.2179 1.87043 14.2393 1.80475 14.2772C1.73907 14.3151 1.68357 14.3684 1.64301 14.4324C1.60245 14.4965 1.57803 14.5695 1.57187 14.6451C1.5657 14.7206 1.57796 14.7966 1.60759 14.8664C1.68728 15.0562 2.42322 16.7226 3.63494 17.0859C3.78692 17.1321 3.94484 17.1558 4.10369 17.1562C4.30344 17.1546 4.50122 17.1164 4.68728 17.0437C4.74978 17.3562 4.82791 17.657 4.92166 17.9461C3.89744 17.7586 2.72322 18.1804 2.57791 18.2414C2.5059 18.2657 2.4409 18.3072 2.3885 18.3623C2.3361 18.4173 2.29788 18.4843 2.27712 18.5574C2.25636 18.6305 2.25369 18.7076 2.26934 18.782C2.285 18.8563 2.3185 18.9258 2.36697 18.9843C2.50056 19.1367 3.69353 20.4492 4.94509 20.4492H4.999C5.316 20.4409 5.62346 20.339 5.88259 20.1562C6.06091 20.4576 6.25493 20.7494 6.46384 21.0304C5.76042 21.1614 5.09075 21.4332 4.49509 21.8297C4.43273 21.8728 4.38176 21.9304 4.34655 21.9975C4.31134 22.0647 4.29295 22.1394 4.29295 22.2152C4.29295 22.291 4.31134 22.3657 4.34655 22.4329C4.38176 22.5 4.43273 22.5576 4.49509 22.6008C4.64041 22.7039 5.78181 23.4914 6.87869 23.4914C7.04948 23.4925 7.21968 23.4712 7.38494 23.4281C7.72636 23.3377 8.02859 23.1376 8.24509 22.8586C9.23786 23.6515 10.3777 24.2401 11.599 24.5906L12.0842 24.7265C12.784 24.9006 13.4696 25.1278 14.1349 25.4062C13.7015 25.7793 13.368 26.2546 13.1646 26.789C13.1211 26.9056 13.1257 27.0346 13.1773 27.1478C13.229 27.261 13.3235 27.349 13.44 27.3925C13.5566 27.4361 13.6856 27.4315 13.7988 27.3798C13.912 27.3282 14 27.2337 14.0435 27.1172C14.2354 26.6275 14.5682 26.2059 14.9998 25.9054C15.4357 26.2041 15.7727 26.626 15.9677 27.1172C15.9893 27.1749 16.022 27.2278 16.064 27.2728C16.106 27.3179 16.1564 27.3543 16.2125 27.3798C16.2685 27.4054 16.329 27.4197 16.3906 27.4219C16.4522 27.4241 16.5136 27.4141 16.5713 27.3925C16.629 27.371 16.6819 27.3383 16.7269 27.2963C16.772 27.2543 16.8084 27.2039 16.8339 27.1478C16.8595 27.0918 16.8738 27.0313 16.876 26.9697C16.8782 26.9081 16.8682 26.8467 16.8467 26.789C16.6432 26.2546 16.3097 25.7793 15.8763 25.4062C16.5416 25.1278 17.2272 24.9006 17.9271 24.7265L18.4123 24.5906C19.6336 24.2401 20.7734 23.6515 21.7662 22.8586C21.9806 23.1407 22.2821 23.3442 22.624 23.4375C22.7893 23.4806 22.9595 23.5019 23.1302 23.5008C24.2271 23.5008 25.3709 22.7133 25.5138 22.6101C25.5762 22.567 25.6272 22.5094 25.6624 22.4422C25.6976 22.3751 25.716 22.3004 25.716 22.2246C25.716 22.1488 25.6976 22.0741 25.6624 22.0069C25.6272 21.9398 25.5762 21.8822 25.5138 21.839C24.9182 21.4426 24.2485 21.1707 23.5451 21.0398C23.7511 20.7555 23.942 20.4606 24.117 20.1562C24.3769 20.3415 24.6861 20.4452 25.0052 20.4539H25.0591C26.3037 20.4539 27.4966 19.1414 27.6373 18.989C27.6873 18.9322 27.7228 18.8641 27.7407 18.7906C27.7586 18.717 27.7585 18.6402 27.7403 18.5668C27.7221 18.4933 27.6864 18.4253 27.6362 18.3686C27.586 18.312 27.5229 18.2683 27.4521 18.2414C27.2951 18.1828 26.1209 17.7586 25.1084 17.9461C25.1974 17.6508 25.2756 17.35 25.3427 17.0437C25.5267 17.1148 25.7221 17.1521 25.9193 17.1539C26.0782 17.1535 26.2361 17.1298 26.3881 17.0836C27.5998 16.7203 28.3357 15.0515 28.4154 14.864C28.445 14.7942 28.4573 14.7183 28.4511 14.6427C28.445 14.5671 28.4205 14.4942 28.38 14.4301C28.3394 14.366 28.2839 14.3128 28.2182 14.2749C28.1526 14.2369 28.0787 14.2155 28.0029 14.2125C27.8271 14.2125 26.4513 14.1726 25.5326 14.7633C25.5217 14.412 25.4927 14.0615 25.4459 13.7133C25.6673 13.6938 25.8824 13.6295 26.0782 13.5243C26.274 13.4192 26.4464 13.2753 26.5849 13.1015C27.3724 12.1125 27.0256 10.3218 26.9834 10.1226C26.9675 10.0495 26.9343 9.98123 26.8866 9.92355C26.8389 9.86586 26.7781 9.82044 26.7093 9.79106C26.6404 9.76169 26.5656 9.74923 26.4909 9.75472C26.4163 9.76022 26.344 9.7835 26.2802 9.82263C25.706 10.1943 25.2073 10.6715 24.8107 11.2289C24.6667 10.8599 24.5024 10.4992 24.3185 10.1484C24.6834 9.9295 24.949 9.57738 25.0591 9.16638ZM6.11462 7.48825C6.32556 7.94529 6.50134 8.5031 6.3865 8.91325C6.34425 9.06891 6.24784 9.20437 6.11462 9.29529C5.98004 9.20263 5.88348 9.06446 5.84275 8.90622C5.7279 8.5031 5.90369 7.94529 6.11462 7.48825ZM4.17166 12.5203C3.90681 12.1875 3.85056 11.6039 3.86931 11.1C4.24197 11.4398 4.62166 11.8851 4.67322 12.3093C4.69699 12.4729 4.66033 12.6396 4.57009 12.7781C4.41062 12.7428 4.26918 12.6513 4.17166 12.5203ZM4.96619 19.5187C4.53259 19.5398 4.02869 19.2258 3.64666 18.9117C4.14119 18.8156 4.72478 18.7804 5.09744 18.9914C5.23321 19.0718 5.33679 19.1969 5.3904 19.3453C5.27345 19.4506 5.12345 19.512 4.96619 19.5187ZM8.90603 6.64919C9.11462 6.27654 9.63493 6.007 10.106 5.83357C9.93259 6.30232 9.66072 6.82497 9.2904 7.03357C9.14854 7.11489 8.98212 7.14235 8.82165 7.11091C8.79385 6.95187 8.82377 6.78812 8.90603 6.64919ZM3.90681 16.1883C3.499 16.0664 3.12166 15.6187 2.84978 15.1968C3.34666 15.2648 3.91619 15.4148 4.19744 15.7289C4.30757 15.8505 4.37001 16.0078 4.37322 16.1718C4.22456 16.2322 4.05934 16.238 3.90681 16.1883ZM7.13415 22.5164C6.72165 22.6265 6.16619 22.4437 5.7115 22.2258C6.18025 22.0195 6.73103 21.8508 7.14119 21.9726C7.29924 22.0207 7.43427 22.1249 7.52087 22.2656C7.42641 22.3945 7.28943 22.4858 7.13415 22.5234V22.5164ZM26.3529 18.9023C25.9615 19.2164 25.4529 19.5304 25.0334 19.5093C24.8723 19.506 24.7178 19.4453 24.5974 19.3383C24.6535 19.1871 24.7615 19.0609 24.9021 18.982C25.2724 18.7781 25.8584 18.8156 26.3529 18.9117V18.9023ZM25.3263 12.3C25.3779 11.8781 25.7576 11.4304 26.1279 11.0929C26.1443 11.5945 26.0904 12.1804 25.8279 12.4992C25.7286 12.626 25.5873 12.7132 25.4295 12.7453C25.3468 12.6158 25.3105 12.4621 25.3263 12.3093V12.3ZM20.7115 7.03122C20.3412 6.82263 20.0693 6.30466 19.8959 5.83357C20.3646 6.007 20.8873 6.27888 21.0959 6.64685C21.1772 6.78871 21.2047 6.95513 21.1732 7.1156C21.0142 7.14319 20.8505 7.11328 20.7115 7.03122ZM22.8677 22.5234C22.7116 22.4863 22.5737 22.3949 22.4787 22.2656C22.5676 22.1315 22.7014 22.0335 22.856 21.989C23.2638 21.8672 23.824 22.0359 24.2834 22.2398C23.8334 22.4484 23.2732 22.6336 22.8654 22.5234H22.8677ZM25.8045 15.7265C26.0881 15.4101 26.6552 15.2578 27.1545 15.1922C26.8826 15.614 26.5029 16.064 26.0951 16.1859C25.9407 16.2333 25.7746 16.2241 25.6263 16.1601C25.6323 16.0002 25.6946 15.8474 25.8021 15.7289L25.8045 15.7265ZM23.8873 7.48591C24.0982 7.94294 24.274 8.50075 24.1592 8.91091C24.1169 9.06656 24.0205 9.20203 23.8873 9.29294C23.7523 9.20128 23.6549 9.06395 23.6131 8.90622C23.4959 8.5031 23.6717 7.94529 23.8849 7.48825L23.8873 7.48591Z" fill="#898B91"/>
<path fill-rule="evenodd" clip-rule="evenodd" d="M21.818 17.167C21.818 17.9228 21.1639 18.5356 20.357 18.5356H16.7741L16.9333 19.6456V19.666C16.9338 19.6714 16.9353 19.6833 16.939 19.7006C16.9469 19.7376 16.9646 19.7981 17.0036 19.8712C17.0718 19.999 17.2172 20.1883 17.5415 20.3603H18.8959V21.2727H11.1037V20.3603H12.4436C12.7678 20.1883 12.9132 19.999 12.9814 19.8712C13.0205 19.7981 13.0381 19.7376 13.046 19.7006C13.0497 19.6833 13.0512 19.6714 13.0518 19.666V19.6456L13.2109 18.5356H9.64268C8.83577 18.5356 8.18164 17.9228 8.18164 17.167V10.0959C8.18164 9.34004 8.83577 8.72729 9.64268 8.72729H20.357C21.1639 8.72729 21.818 9.34004 21.818 10.0959V17.167ZM20.357 17.6232C20.6259 17.6232 20.9502 17.4189 20.9502 17.167V16.7108H9.04941V17.167C9.04941 17.4189 9.37371 17.6232 9.64268 17.6232H20.357ZM9.04941 15.8938H14.9998H20.9502V12.9741V10.0959C20.9502 9.84394 20.6525 9.52357 20.3835 9.52357H14.9998H9.61612C9.34715 9.52357 9.04941 9.84394 9.04941 10.0959V12.9741V15.8938ZM16.1786 20.3603C16.1621 20.3331 16.1467 20.306 16.1324 20.2792C16.0497 20.1243 16.0065 19.9852 15.9839 19.8796C15.9726 19.8268 15.9665 19.7821 15.9631 19.7476C15.962 19.736 15.9612 19.7255 15.9606 19.7162L15.7914 18.5356H14.1937L14.0244 19.7162C14.0242 19.7199 14.0239 19.7238 14.0236 19.7279C14.0231 19.7341 14.0226 19.7407 14.0219 19.7476C14.0186 19.7821 14.0124 19.8268 14.0011 19.8796C13.9786 19.9852 13.9353 20.1243 13.8526 20.2792C13.8383 20.306 13.823 20.3331 13.8064 20.3603H16.1786Z" fill="#898B91"/>
</g>
<defs>
<clipPath id="clip0_501_2903">
<rect width="30" height="30" fill="white"/>
</clipPath>
</defs>
</svg>
