<svg width="40" height="40" viewBox="0 0 40 40" fill="none" xmlns="http://www.w3.org/2000/svg">
<path d="M20.8333 3.33398C16.5366 3.33398 15.9963 3.35378 14.308 3.42898C12.6198 3.50815 11.4699 3.77336 10.4625 4.16523C9.40581 4.56269 8.44868 5.18614 7.65802 5.99201C6.85265 6.78307 6.22927 7.74008 5.83125 8.79648C5.43938 9.8019 5.17219 10.9538 5.095 12.6361C5.01979 14.3283 5 14.8666 5 19.1693C5 23.468 5.01979 24.0064 5.095 25.6946C5.17417 27.3809 5.43938 28.5308 5.83125 29.5382C6.23698 30.5792 6.77729 31.4619 7.65802 32.3426C8.53677 33.2234 9.41948 33.7656 10.4605 34.1694C11.4699 34.5613 12.6178 34.8285 14.3041 34.9056C15.9943 34.9809 16.5326 35.0007 20.8333 35.0007C25.1341 35.0007 25.6704 34.9809 27.3606 34.9056C29.0449 34.8265 30.1988 34.5613 31.2062 34.1694C32.2622 33.7717 33.2186 33.1483 34.0086 32.3426C34.8894 31.4619 35.4297 30.5792 35.8354 29.5382C36.2253 28.5308 36.4925 27.3809 36.5717 25.6946C36.6469 24.0064 36.6667 23.468 36.6667 19.1673C36.6667 14.8666 36.6469 14.3283 36.5717 12.638C36.4925 10.9538 36.2253 9.8019 35.8354 8.79648C35.4375 7.74006 34.8141 6.78303 34.0086 5.99201C33.2182 5.18584 32.261 4.56235 31.2042 4.16523C30.1948 3.77336 29.0429 3.50617 27.3587 3.42898C25.6684 3.35378 25.1321 3.33398 20.8294 3.33398H20.8353H20.8333ZM19.4143 6.18794H20.8353C25.0628 6.18794 25.5635 6.2018 27.232 6.27898C28.7757 6.34826 29.6149 6.60753 30.173 6.82326C30.9113 7.11023 31.4397 7.45461 31.9939 8.00878C32.548 8.56294 32.8904 9.0894 33.1774 9.82961C33.3951 10.3858 33.6524 11.2249 33.7217 12.7687C33.7989 14.4371 33.8147 14.9378 33.8147 19.1634C33.8147 23.3889 33.7989 23.8916 33.7217 25.56C33.6524 27.1038 33.3931 27.941 33.1774 28.4991C32.9236 29.1866 32.5184 29.8082 31.9919 30.3179C31.4377 30.8721 30.9113 31.2145 30.171 31.5015C29.6169 31.7192 28.7777 31.9765 27.232 32.0477C25.5635 32.1229 25.0628 32.1408 20.8353 32.1408C16.6078 32.1408 16.1051 32.1229 14.4367 32.0477C12.8929 31.9765 12.0557 31.7192 11.4976 31.5015C10.8098 31.248 10.1876 30.8436 9.67677 30.3179C9.14982 29.8074 8.74404 29.1852 8.48927 28.4971C8.27354 27.941 8.01427 27.1018 7.945 25.558C7.86979 23.8896 7.85396 23.3889 7.85396 19.1594C7.85396 14.9319 7.86979 14.4332 7.945 12.7647C8.01625 11.221 8.27354 10.3818 8.49125 9.82367C8.77823 9.08544 9.1226 8.557 9.67677 8.00284C10.2309 7.44867 10.7574 7.10628 11.4976 6.8193C12.0557 6.60159 12.8929 6.3443 14.4367 6.27305C15.8973 6.20576 16.4633 6.18596 19.4143 6.18398V6.18794ZM29.2864 8.81628C29.0368 8.81628 28.7898 8.86542 28.5593 8.96091C28.3287 9.05639 28.1193 9.19634 27.9429 9.37277C27.7664 9.5492 27.6265 9.75866 27.531 9.98918C27.4355 10.2197 27.3864 10.4668 27.3864 10.7163C27.3864 10.9658 27.4355 11.2129 27.531 11.4434C27.6265 11.6739 27.7664 11.8833 27.9429 12.0598C28.1193 12.2362 28.3287 12.3762 28.5593 12.4716C28.7898 12.5671 29.0368 12.6163 29.2864 12.6163C29.7903 12.6163 30.2735 12.4161 30.6299 12.0598C30.9862 11.7035 31.1864 11.2202 31.1864 10.7163C31.1864 10.2124 30.9862 9.72909 30.6299 9.37277C30.2735 9.01645 29.7903 8.81628 29.2864 8.81628ZM20.8353 11.0369C19.7568 11.0201 18.6857 11.218 17.6844 11.6191C16.6831 12.0201 15.7716 12.6164 15.003 13.3732C14.2344 14.1299 13.624 15.032 13.2073 16.0269C12.7906 17.0218 12.5761 18.0897 12.5761 19.1683C12.5761 20.2469 12.7906 21.3148 13.2073 22.3097C13.624 23.3046 14.2344 24.2067 15.003 24.9635C15.7716 25.7202 16.6831 26.3165 17.6844 26.7176C18.6857 27.1186 19.7568 27.3165 20.8353 27.2997C22.9699 27.2664 25.0058 26.3951 26.5036 24.8738C28.0014 23.3524 28.8408 21.3032 28.8408 19.1683C28.8408 17.0334 28.0014 14.9842 26.5036 13.4629C25.0058 11.9416 22.9699 11.0702 20.8353 11.0369ZM20.8353 13.8889C22.2352 13.8889 23.5778 14.445 24.5677 15.4349C25.5576 16.4248 26.1138 17.7674 26.1138 19.1673C26.1138 20.5672 25.5576 21.9098 24.5677 22.8997C23.5778 23.8896 22.2352 24.4458 20.8353 24.4458C19.4354 24.4458 18.0928 23.8896 17.1029 22.8997C16.113 21.9098 15.5569 20.5672 15.5569 19.1673C15.5569 17.7674 16.113 16.4248 17.1029 15.4349C18.0928 14.445 19.4354 13.8889 20.8353 13.8889Z" fill="#F16622"/>
</svg>
