<svg width="40" height="40" viewBox="0 0 40 40" fill="none" xmlns="http://www.w3.org/2000/svg">
<path fill-rule="evenodd" clip-rule="evenodd" d="M21.2618 14.439C23.0984 11.9553 25.1288 10 27.7254 10C32.6274 10 36.6647 16.2399 36.6667 23.6692C36.6667 28.2013 34.7153 31.0412 31.2105 31.0412C28.1568 31.0412 26.4706 29.3273 23.4447 24.2649L22.1247 22.0425L21.8911 21.6526C21.5469 21.0708 21.1973 20.4923 20.8422 19.917L18.5109 24.0334C15.2 29.8221 13.3357 31.0412 10.7471 31.0412C7.14924 31.0412 5 28.2408 5 23.7999C5 16.705 8.94819 10 14.0996 10C14.731 10 15.3365 10.0772 15.9283 10.2414C16.5418 10.4116 17.1375 10.6768 17.7351 11.0469C18.8771 11.7574 20.019 12.8577 21.2618 14.439ZM24.262 18.8404C23.7633 18.029 23.2844 17.2829 22.8233 16.5981L22.8114 16.5823C24.4837 13.9996 25.8651 12.7152 27.5057 12.7152C30.9156 12.7152 33.6447 17.7361 33.6447 23.9028C33.6447 26.2539 32.8728 27.6174 31.2797 27.6174C29.7499 27.6174 29.0196 26.6081 26.1144 21.9376L24.26 18.8404H24.262ZM14.5904 13.4752C16.0253 13.6731 17.3314 14.7299 19.2214 17.4353C18.1309 19.1051 17.0523 20.7827 15.9857 22.468C13.3001 26.6754 12.3719 27.6194 10.8778 27.6194C9.34004 27.6194 8.42375 26.2697 8.42375 23.8592C8.42375 18.7098 10.9925 13.4416 14.0561 13.4416C14.2362 13.4416 14.4143 13.4534 14.5904 13.4772V13.4752Z" fill="#F16622"/>
</svg>
