<svg width="40" height="40" viewBox="0 0 40 40" fill="none" xmlns="http://www.w3.org/2000/svg">
<path d="M14.9473 32.3966C26.8975 32.3966 33.4347 22.4948 33.4347 13.923C33.4347 13.6459 33.4347 13.3649 33.4228 13.0878C34.6955 12.1665 35.794 11.0258 36.6667 9.71926C35.4778 10.2434 34.218 10.5889 32.928 10.7445C34.2868 9.9323 35.3045 8.65441 35.7919 7.14832C34.5153 7.90461 33.1181 8.43552 31.6614 8.7178C30.682 7.67483 29.3861 6.98389 27.9743 6.75201C26.5626 6.52013 25.1137 6.76025 23.8522 7.43518C22.5907 8.11011 21.587 9.18217 20.9965 10.4853C20.406 11.7885 20.2617 13.25 20.5859 14.6434C18.0026 14.5139 15.4754 13.8428 13.1681 12.6736C10.8608 11.5045 8.82511 9.86343 7.19292 7.85687C6.36432 9.28797 6.11145 10.9808 6.48565 12.5916C6.85986 14.2023 7.83309 15.6103 9.20771 16.5296C8.17763 16.4946 7.1702 16.218 6.26667 15.7221V15.8111C6.26844 17.3103 6.7878 18.7629 7.73694 19.9234C8.68608 21.0838 10.0068 21.881 11.4758 22.1801C10.9182 22.3337 10.3422 22.4103 9.76385 22.4077C9.35611 22.4089 8.94919 22.3712 8.54865 22.2949C8.96385 23.5854 9.77231 24.7138 10.8608 25.5219C11.9493 26.33 13.2633 26.7774 14.6188 26.8014C12.3161 28.61 9.47173 29.5909 6.54375 29.5861C6.02782 29.5883 5.51225 29.5586 5 29.4971C7.97175 31.3917 11.423 32.3976 14.9473 32.3966Z" fill="#F16622"/>
</svg>
