<svg width="40" height="40" viewBox="0 0 40 40" fill="none" xmlns="http://www.w3.org/2000/svg">
<path d="M20.9353 8.33398H21.1114C22.7384 8.33992 30.9821 8.3993 33.2049 8.99705C33.8768 9.17948 34.4892 9.53506 34.9806 10.0283C35.4721 10.5215 35.8255 11.135 36.0056 11.8076C36.2055 12.5598 36.346 13.5554 36.441 14.5826L36.4608 14.7885L36.5044 15.3031L36.5202 15.5089C36.6489 17.318 36.6647 19.0123 36.6667 19.3824V19.5308C36.6647 19.9148 36.6469 21.7239 36.5044 23.6082L36.4885 23.816L36.4707 24.0218C36.3718 25.154 36.2253 26.2782 36.0056 27.1056C35.8261 27.7784 35.4728 28.3923 34.9813 28.8856C34.4897 29.3789 33.8771 29.7343 33.2049 29.9162C30.9089 30.5337 22.1822 30.5773 20.9729 30.5792H20.6918C20.0802 30.5792 17.5507 30.5674 14.8984 30.4763L14.562 30.4644L14.3898 30.4565L14.0513 30.4427L13.7128 30.4288C11.5158 30.3318 9.42371 30.1755 8.4598 29.9142C7.78781 29.7325 7.17537 29.3774 6.68383 28.8844C6.19229 28.3915 5.83892 27.7781 5.6591 27.1056C5.4394 26.2802 5.29294 25.154 5.19397 24.0218L5.17814 23.814L5.1623 23.6082C5.06462 22.267 5.01049 20.923 5 19.5783L5 19.3349C5.00396 18.9093 5.01979 17.4387 5.12667 15.8157L5.14053 15.6118L5.14647 15.5089L5.1623 15.3031L5.20585 14.7885L5.22564 14.5826C5.32065 13.5554 5.46117 12.5578 5.66108 11.8076C5.84059 11.1348 6.19383 10.5209 6.68539 10.0276C7.17695 9.53433 7.78955 9.17893 8.46178 8.99705C9.42569 8.73974 11.5178 8.5814 13.7148 8.48243L14.0513 8.46858L14.3917 8.4567L14.562 8.45076L14.9004 8.43691C16.7841 8.37629 18.6686 8.34264 20.5533 8.33596H20.9353V8.33398ZM17.6675 14.6875V24.2237L25.8954 19.4576L17.6675 14.6875Z" fill="#F16622"/>
</svg>
