<svg width="300" height="250" viewBox="0 0 300 250" fill="none" xmlns="http://www.w3.org/2000/svg">
<path d="M16.9811 250C7.60281 250 0 244.251 0 237.158L0 12.8425C0 5.74901 7.60281 0 16.9811 0L218.362 0C222.717 0 226.952 1.42137 230.426 4.0482L292.064 50.6639C297.062 54.4441 300 60.3487 300 66.6157V237.158C300 244.251 292.397 250 283.019 250L16.9811 250Z" fill="#F16622"/>
<path d="M21.0043 34H22.8487V30.2713H24.728L26.7266 34H28.7848L26.5824 29.9631C27.7805 29.4808 28.4119 28.4567 28.4119 27.0746C28.4119 25.1307 27.1591 23.8182 24.8224 23.8182H21.0043V34ZM22.8487 28.7401V25.3594H24.5391C25.9162 25.3594 26.5327 25.9908 26.5327 27.0746C26.5327 28.1584 25.9162 28.7401 24.549 28.7401H22.8487ZM30.1097 34H36.7717V32.4538H31.9542V29.6747H36.3888V28.1286H31.9542V25.3643H36.7319V23.8182H30.1097V34ZM38.6136 34H40.4581V29.6747H44.6889V28.1286H40.4581V25.3643H45.1364V23.8182H38.6136V34ZM46.8168 34H53.1456V32.4538H48.6612V23.8182H46.8168V34ZM54.7464 34H61.4084V32.4538H56.5909V29.6747H61.0256V28.1286H56.5909V25.3643H61.3686V23.8182H54.7464V34ZM71.9656 27.2536C71.6523 24.9915 69.9123 23.679 67.6552 23.679C64.9954 23.679 62.9918 25.6179 62.9918 28.9091C62.9918 32.1953 64.9705 34.1392 67.6552 34.1392C70.0763 34.1392 71.6822 32.5732 71.9656 30.6293L70.1062 30.6193C69.8725 31.8125 68.8981 32.4837 67.68 32.4837C66.0295 32.4837 64.8462 31.2457 64.8462 28.9091C64.8462 26.6122 66.0195 25.3345 67.685 25.3345C68.9229 25.3345 69.8924 26.0355 70.1062 27.2536H71.9656ZM73.2072 25.3643H76.3542V34H78.1838V25.3643H81.3308V23.8182H73.2072V25.3643ZM95.4675 28.9091C95.4675 25.6179 93.459 23.679 90.7892 23.679C88.1145 23.679 86.111 25.6179 86.111 28.9091C86.111 32.1953 88.1145 34.1392 90.7892 34.1392C93.459 34.1392 95.4675 32.2003 95.4675 28.9091ZM93.6131 28.9091C93.6131 31.2259 92.4498 32.4837 90.7892 32.4837C89.1337 32.4837 87.9654 31.2259 87.9654 28.9091C87.9654 26.5923 89.1337 25.3345 90.7892 25.3345C92.4498 25.3345 93.6131 26.5923 93.6131 28.9091ZM105.578 23.8182H103.744V30.7585H103.654L98.8619 23.8182H97.2113V34H99.0558V27.0646H99.1403L103.938 34H105.578V23.8182ZM110.365 23.8182L114.069 30.2017V34H115.908V30.2017L119.612 23.8182H117.529L115.038 28.3224H114.939L112.448 23.8182H110.365ZM129.442 28.9091C129.442 25.6179 127.434 23.679 124.764 23.679C122.089 23.679 120.086 25.6179 120.086 28.9091C120.086 32.1953 122.089 34.1392 124.764 34.1392C127.434 34.1392 129.442 32.2003 129.442 28.9091ZM127.588 28.9091C127.588 31.2259 126.424 32.4837 124.764 32.4837C123.108 32.4837 121.94 31.2259 121.94 28.9091C121.94 26.5923 123.108 25.3345 124.764 25.3345C126.424 25.3345 127.588 26.5923 127.588 28.9091ZM137.604 23.8182V30.3161C137.604 31.5938 136.714 32.5085 135.317 32.5085C133.915 32.5085 133.03 31.5938 133.03 30.3161V23.8182H131.186V30.4702C131.186 32.6577 132.827 34.1541 135.317 34.1541C137.798 34.1541 139.449 32.6577 139.449 30.4702V23.8182H137.604ZM141.453 34H143.298V30.2713H145.177L147.176 34H149.234L147.032 29.9631C148.23 29.4808 148.861 28.4567 148.861 27.0746C148.861 25.1307 147.608 23.8182 145.272 23.8182H141.453V34ZM143.298 28.7401V25.3594H144.988C146.365 25.3594 146.982 25.9908 146.982 27.0746C146.982 28.1584 146.365 28.7401 144.998 28.7401H143.298ZM162.747 27.2536C162.434 24.9915 160.694 23.679 158.436 23.679C155.777 23.679 153.773 25.6179 153.773 28.9091C153.773 32.1953 155.752 34.1392 158.436 34.1392C160.858 34.1392 162.463 32.5732 162.747 30.6293L160.887 30.6193C160.654 31.8125 159.679 32.4837 158.461 32.4837C156.811 32.4837 155.627 31.2457 155.627 28.9091C155.627 26.6122 156.801 25.3345 158.466 25.3345C159.704 25.3345 160.674 26.0355 160.887 27.2536H162.747ZM164.436 34H166.28V29.6747H170.998V34H172.848V23.8182H170.998V28.1286H166.28V23.8182H164.436V34ZM183.952 28.9091C183.952 25.6179 181.943 23.679 179.274 23.679C176.599 23.679 174.595 25.6179 174.595 28.9091C174.595 32.1953 176.599 34.1392 179.274 34.1392C181.943 34.1392 183.952 32.2003 183.952 28.9091ZM182.097 28.9091C182.097 31.2259 180.934 32.4837 179.274 32.4837C177.618 32.4837 176.45 31.2259 176.45 28.9091C176.45 26.5923 177.618 25.3345 179.274 25.3345C180.934 25.3345 182.097 26.5923 182.097 28.9091ZM187.54 23.8182H185.696V34H187.54V23.8182ZM198.253 27.2536C197.939 24.9915 196.199 23.679 193.942 23.679C191.282 23.679 189.279 25.6179 189.279 28.9091C189.279 32.1953 191.258 34.1392 193.942 34.1392C196.363 34.1392 197.969 32.5732 198.253 30.6293L196.393 30.6193C196.16 31.8125 195.185 32.4837 193.967 32.4837C192.317 32.4837 191.133 31.2457 191.133 28.9091C191.133 26.6122 192.307 25.3345 193.972 25.3345C195.21 25.3345 196.18 26.0355 196.393 27.2536H198.253ZM199.942 34H206.604V32.4538H201.786V29.6747H206.221V28.1286H201.786V25.3643H206.564V23.8182H199.942V34ZM213.979 26.6172H215.754C215.719 24.897 214.252 23.679 212.085 23.679C209.947 23.679 208.341 24.8821 208.346 26.6818C208.346 28.1435 209.385 28.9837 211.061 29.4162L212.219 29.7145C213.318 29.9929 214.044 30.3359 214.049 31.1264C214.044 31.9964 213.218 32.5781 212.015 32.5781C210.862 32.5781 209.967 32.0611 209.892 30.9922H208.078C208.152 33.0156 209.659 34.1541 212.03 34.1541C214.471 34.1541 215.888 32.9361 215.893 31.1413C215.888 29.3764 214.431 28.571 212.9 28.2081L211.946 27.9695C211.11 27.7706 210.206 27.4176 210.216 26.5675C210.221 25.8018 210.907 25.2401 212.06 25.2401C213.159 25.2401 213.885 25.7521 213.979 26.6172Z" fill="white"/>
<path d="M20.358 154.818L24.0369 160.804V165H25.2699V160.804L28.9489 154.818H27.5369L24.7131 159.571H24.5938L21.7699 154.818H20.358ZM32.4066 165.159C34.4748 165.159 35.8668 163.588 35.8668 161.222C35.8668 158.835 34.4748 157.264 32.4066 157.264C30.3384 157.264 28.9464 158.835 28.9464 161.222C28.9464 163.588 30.3384 165.159 32.4066 165.159ZM32.4066 164.105C30.8356 164.105 30.1197 162.753 30.1197 161.222C30.1197 159.69 30.8356 158.318 32.4066 158.318C33.9776 158.318 34.6935 159.69 34.6935 161.222C34.6935 162.753 33.9776 164.105 32.4066 164.105ZM42.4703 161.878C42.4703 163.31 41.3766 163.966 40.5016 163.966C39.5272 163.966 38.8311 163.25 38.8311 162.136V157.364H37.6578V162.216C37.6578 164.165 38.6919 165.099 40.1238 165.099C41.2772 165.099 42.0328 164.483 42.3908 163.707H42.4703V165H43.6436V157.364H42.4703V161.878ZM45.7926 165H46.9659V160.168C46.9659 159.134 47.7812 158.378 48.8949 158.378C49.2081 158.378 49.5312 158.438 49.6108 158.457V157.264C49.4766 157.254 49.1683 157.244 48.9943 157.244C48.0795 157.244 47.2841 157.761 47.0057 158.517H46.9261V157.364H45.7926V165ZM58.0414 165.159C59.7317 165.159 60.8453 164.125 61.0442 162.773H59.8709C59.6522 163.608 58.9561 164.105 58.0414 164.105C56.6493 164.105 55.7544 162.952 55.7544 161.182C55.7544 159.452 56.6692 158.318 58.0414 158.318C59.0755 158.318 59.6919 158.955 59.8709 159.651H61.0442C60.8453 158.219 59.6323 157.264 58.0215 157.264C55.9533 157.264 54.5811 158.895 54.5811 161.222C54.5811 163.509 55.8936 165.159 58.0414 165.159ZM63.9327 160.406C63.9327 159.074 64.7828 158.318 65.9412 158.318C67.0449 158.318 67.7111 159.014 67.7111 160.227V165H68.8844V160.148C68.8844 158.184 67.8404 157.264 66.2793 157.264C65.0762 157.264 64.3901 157.766 64.0321 158.557H63.9327V154.818H62.7594V165H63.9327V160.406ZM74.1332 165.159C76.2013 165.159 77.5934 163.588 77.5934 161.222C77.5934 158.835 76.2013 157.264 74.1332 157.264C72.065 157.264 70.6729 158.835 70.6729 161.222C70.6729 163.588 72.065 165.159 74.1332 165.159ZM74.1332 164.105C72.5621 164.105 71.8462 162.753 71.8462 161.222C71.8462 159.69 72.5621 158.318 74.1332 158.318C75.7042 158.318 76.4201 159.69 76.4201 161.222C76.4201 162.753 75.7042 164.105 74.1332 164.105ZM79.3844 165H80.5577V157.364H79.3844V165ZM79.981 156.091C80.4384 156.091 80.8162 155.733 80.8162 155.295C80.8162 154.858 80.4384 154.5 79.981 154.5C79.5236 154.5 79.1458 154.858 79.1458 155.295C79.1458 155.733 79.5236 156.091 79.981 156.091ZM85.8089 165.159C87.4993 165.159 88.6129 164.125 88.8118 162.773H87.6385C87.4197 163.608 86.7237 164.105 85.8089 164.105C84.4169 164.105 83.522 162.952 83.522 161.182C83.522 159.452 84.4368 158.318 85.8089 158.318C86.843 158.318 87.4595 158.955 87.6385 159.651H88.8118C88.6129 158.219 87.3999 157.264 85.7891 157.264C83.7209 157.264 82.3487 158.895 82.3487 161.222C82.3487 163.509 83.6612 165.159 85.8089 165.159ZM93.7287 165.159C95.2798 165.159 96.4134 164.384 96.7713 163.23L95.6378 162.912C95.3395 163.707 94.6484 164.105 93.7287 164.105C92.3516 164.105 91.402 163.215 91.3473 161.58H96.8906V161.082C96.8906 158.239 95.2003 157.264 93.6094 157.264C91.5412 157.264 90.169 158.895 90.169 161.241C90.169 163.588 91.5213 165.159 93.7287 165.159ZM91.3473 160.565C91.4268 159.377 92.267 158.318 93.6094 158.318C94.8821 158.318 95.6974 159.273 95.6974 160.565H91.3473ZM104.085 159.074C103.717 157.99 102.891 157.264 101.38 157.264C99.7692 157.264 98.576 158.179 98.576 159.472C98.576 160.526 99.2024 161.232 100.604 161.56L101.877 161.858C102.648 162.037 103.011 162.405 103.011 162.932C103.011 163.588 102.315 164.125 101.221 164.125C100.261 164.125 99.6598 163.712 99.451 162.892L98.3374 163.17C98.6108 164.468 99.6797 165.159 101.241 165.159C103.016 165.159 104.224 164.19 104.224 162.872C104.224 161.808 103.558 161.137 102.195 160.804L101.062 160.526C100.157 160.302 99.7493 159.999 99.7493 159.412C99.7493 158.756 100.445 158.278 101.38 158.278C102.404 158.278 102.827 158.845 103.031 159.372L104.085 159.074ZM115.336 159.074C114.969 157.99 114.143 157.264 112.632 157.264C111.021 157.264 109.828 158.179 109.828 159.472C109.828 160.526 110.454 161.232 111.856 161.56L113.129 161.858C113.9 162.037 114.263 162.405 114.263 162.932C114.263 163.588 113.567 164.125 112.473 164.125C111.513 164.125 110.912 163.712 110.703 162.892L109.589 163.17C109.863 164.468 110.932 165.159 112.493 165.159C114.268 165.159 115.476 164.19 115.476 162.872C115.476 161.808 114.809 161.137 113.447 160.804L112.314 160.526C111.409 160.302 111.001 159.999 111.001 159.412C111.001 158.756 111.697 158.278 112.632 158.278C113.656 158.278 114.079 158.845 114.282 159.372L115.336 159.074ZM120.444 165.159C121.995 165.159 123.128 164.384 123.486 163.23L122.353 162.912C122.054 163.707 121.363 164.105 120.444 164.105C119.066 164.105 118.117 163.215 118.062 161.58H123.605V161.082C123.605 158.239 121.915 157.264 120.324 157.264C118.256 157.264 116.884 158.895 116.884 161.241C116.884 163.588 118.236 165.159 120.444 165.159ZM118.062 160.565C118.142 159.377 118.982 158.318 120.324 158.318C121.597 158.318 122.412 159.273 122.412 160.565H118.062ZM127.637 165.179C128.97 165.179 129.666 164.463 129.904 163.966H129.964V165H131.137V159.969C131.137 157.543 129.288 157.264 128.314 157.264C127.16 157.264 125.848 157.662 125.251 159.054L126.365 159.452C126.623 158.895 127.235 158.298 128.353 158.298C129.432 158.298 129.964 158.87 129.964 159.849V159.889C129.964 160.456 129.387 160.406 127.995 160.585C126.578 160.769 125.032 161.082 125.032 162.832C125.032 164.324 126.186 165.179 127.637 165.179ZM127.816 164.125C126.882 164.125 126.206 163.707 126.206 162.892C126.206 161.997 127.021 161.719 127.936 161.599C128.433 161.54 129.765 161.401 129.964 161.162V162.236C129.964 163.19 129.208 164.125 127.816 164.125ZM133.279 165H134.452V160.227C134.452 159.109 135.268 158.318 136.182 158.318C137.072 158.318 137.694 158.9 137.694 159.77V165H138.887V160.028C138.887 159.044 139.503 158.318 140.577 158.318C141.412 158.318 142.128 158.761 142.128 159.889V165H143.302V159.889C143.302 158.094 142.337 157.264 140.975 157.264C139.881 157.264 139.081 157.766 138.688 158.557H138.608C138.231 157.741 137.564 157.264 136.56 157.264C135.566 157.264 134.83 157.741 134.512 158.557H134.412V157.364H133.279V165ZM146.62 154.818H145.447V165H146.62V154.818ZM151.971 165.159C153.522 165.159 154.656 164.384 155.013 163.23L153.88 162.912C153.582 163.707 152.891 164.105 151.971 164.105C150.594 164.105 149.644 163.215 149.589 161.58H155.133V161.082C155.133 158.239 153.442 157.264 151.852 157.264C149.783 157.264 148.411 158.895 148.411 161.241C148.411 163.588 149.763 165.159 151.971 165.159ZM149.589 160.565C149.669 159.377 150.509 158.318 151.852 158.318C153.124 158.318 153.94 159.273 153.94 160.565H149.589ZM162.327 159.074C161.959 157.99 161.134 157.264 159.622 157.264C158.011 157.264 156.818 158.179 156.818 159.472C156.818 160.526 157.445 161.232 158.847 161.56L160.119 161.858C160.89 162.037 161.253 162.405 161.253 162.932C161.253 163.588 160.557 164.125 159.463 164.125C158.504 164.125 157.902 163.712 157.693 162.892L156.58 163.17C156.853 164.468 157.922 165.159 159.483 165.159C161.258 165.159 162.466 164.19 162.466 162.872C162.466 161.808 161.8 161.137 160.438 160.804L159.304 160.526C158.399 160.302 157.991 159.999 157.991 159.412C157.991 158.756 158.688 158.278 159.622 158.278C160.646 158.278 161.069 158.845 161.273 159.372L162.327 159.074ZM169.641 159.074C169.273 157.99 168.448 157.264 166.937 157.264C165.326 157.264 164.133 158.179 164.133 159.472C164.133 160.526 164.759 161.232 166.161 161.56L167.434 161.858C168.204 162.037 168.567 162.405 168.567 162.932C168.567 163.588 167.871 164.125 166.778 164.125C165.818 164.125 165.216 163.712 165.008 162.892L163.894 163.17C164.167 164.468 165.236 165.159 166.797 165.159C168.572 165.159 169.78 164.19 169.78 162.872C169.78 161.808 169.114 161.137 167.752 160.804L166.618 160.526C165.714 160.302 165.306 159.999 165.306 159.412C165.306 158.756 166.002 158.278 166.937 158.278C167.961 158.278 168.383 158.845 168.587 159.372L169.641 159.074ZM172.72 154.818H171.547V165H172.72V154.818ZM175.624 167.864C176.683 167.864 177.429 167.302 177.872 166.114L181.123 157.384L179.84 157.364L177.732 163.449H177.653L175.545 157.364H174.272L177.096 165.04L176.877 165.636C176.45 166.8 175.923 166.909 175.068 166.69L174.769 167.724C174.889 167.784 175.227 167.864 175.624 167.864ZM189.934 157.364H188.303V155.534H187.13V157.364H185.977V158.358H187.13V163.131C187.13 164.463 188.204 165.099 189.198 165.099C189.636 165.099 189.914 165.02 190.073 164.96L189.835 163.906C189.735 163.926 189.576 163.966 189.317 163.966C188.8 163.966 188.303 163.807 188.303 162.812V158.358H189.934V157.364ZM191.699 165H192.872V160.168C192.872 159.134 193.688 158.378 194.801 158.378C195.114 158.378 195.438 158.438 195.517 158.457V157.264C195.383 157.254 195.075 157.244 194.901 157.244C193.986 157.244 193.19 157.761 192.912 158.517H192.832V157.364H191.699V165ZM199.155 165.179C200.487 165.179 201.183 164.463 201.422 163.966H201.482V165H202.655V159.969C202.655 157.543 200.806 157.264 199.831 157.264C198.678 157.264 197.365 157.662 196.769 159.054L197.882 159.452C198.141 158.895 198.752 158.298 199.871 158.298C200.95 158.298 201.482 158.87 201.482 159.849V159.889C201.482 160.456 200.905 160.406 199.513 160.585C198.096 160.769 196.55 161.082 196.55 162.832C196.55 164.324 197.703 165.179 199.155 165.179ZM199.334 164.125C198.399 164.125 197.723 163.707 197.723 162.892C197.723 161.997 198.539 161.719 199.453 161.599C199.95 161.54 201.283 161.401 201.482 161.162V162.236C201.482 163.19 200.726 164.125 199.334 164.125ZM210.767 157.364H209.495L207.387 163.449H207.307L205.199 157.364H203.926L206.75 165H207.944L210.767 157.364ZM215.244 165.159C216.795 165.159 217.929 164.384 218.287 163.23L217.153 162.912C216.855 163.707 216.164 164.105 215.244 164.105C213.867 164.105 212.918 163.215 212.863 161.58H218.406V161.082C218.406 158.239 216.716 157.264 215.125 157.264C213.057 157.264 211.685 158.895 211.685 161.241C211.685 163.588 213.037 165.159 215.244 165.159ZM212.863 160.565C212.942 159.377 213.783 158.318 215.125 158.318C216.398 158.318 217.213 159.273 217.213 160.565H212.863ZM221.364 154.818H220.191V165H221.364V154.818ZM230.851 157.364H229.141V156.588C229.141 155.832 229.459 155.435 230.235 155.435C230.573 155.435 230.772 155.514 230.891 155.554L231.229 154.54C231.05 154.46 230.692 154.341 230.116 154.341C229.022 154.341 227.968 154.997 227.968 156.31V157.364H226.735V158.358H227.968V165H229.141V158.358H230.851V157.364ZM232.496 165H233.669V160.168C233.669 159.134 234.484 158.378 235.598 158.378C235.911 158.378 236.234 158.438 236.314 158.457V157.264C236.18 157.254 235.871 157.244 235.697 157.244C234.783 157.244 233.987 157.761 233.709 158.517H233.629V157.364H232.496V165ZM240.575 165.159C242.643 165.159 244.035 163.588 244.035 161.222C244.035 158.835 242.643 157.264 240.575 157.264C238.506 157.264 237.114 158.835 237.114 161.222C237.114 163.588 238.506 165.159 240.575 165.159ZM240.575 164.105C239.004 164.105 238.288 162.753 238.288 161.222C238.288 159.69 239.004 158.318 240.575 158.318C242.146 158.318 242.862 159.69 242.862 161.222C242.862 162.753 242.146 164.105 240.575 164.105ZM245.826 165H246.999V160.227C246.999 159.109 247.814 158.318 248.729 158.318C249.619 158.318 250.241 158.9 250.241 159.77V165H251.434V160.028C251.434 159.044 252.05 158.318 253.124 158.318C253.959 158.318 254.675 158.761 254.675 159.889V165H255.849V159.889C255.849 158.094 254.884 157.264 253.522 157.264C252.428 157.264 251.628 157.766 251.235 158.557H251.155C250.778 157.741 250.111 157.264 249.107 157.264C248.113 157.264 247.377 157.741 247.059 158.557H246.959V157.364H245.826V165ZM24.1761 185.159C26.2443 185.159 27.6364 183.588 27.6364 181.222C27.6364 178.835 26.2443 177.264 24.1761 177.264C22.108 177.264 20.7159 178.835 20.7159 181.222C20.7159 183.588 22.108 185.159 24.1761 185.159ZM24.1761 184.105C22.6051 184.105 21.8892 182.753 21.8892 181.222C21.8892 179.69 22.6051 178.318 24.1761 178.318C25.7472 178.318 26.4631 179.69 26.4631 181.222C26.4631 182.753 25.7472 184.105 24.1761 184.105ZM30.6007 180.406C30.6007 179.074 31.426 178.318 32.5495 178.318C33.6383 178.318 34.2995 179.029 34.2995 180.227V185H35.4728V180.148C35.4728 178.199 34.4338 177.264 32.8876 177.264C31.7342 177.264 31.0183 177.781 30.6603 178.557H30.5609V177.364H29.4274V185H30.6007V180.406ZM40.8185 185.159C42.3697 185.159 43.5032 184.384 43.8612 183.23L42.7276 182.912C42.4293 183.707 41.7383 184.105 40.8185 184.105C39.4414 184.105 38.4918 183.215 38.4371 181.58H43.9805V181.082C43.9805 178.239 42.2901 177.264 40.6992 177.264C38.631 177.264 37.2589 178.895 37.2589 181.241C37.2589 183.588 38.6112 185.159 40.8185 185.159ZM38.4371 180.565C38.5167 179.377 39.3569 178.318 40.6992 178.318C41.9719 178.318 42.7873 179.273 42.7873 180.565H38.4371ZM52.7852 188.023C54.6147 188.023 56.0863 187.188 56.0863 185.219V177.364H54.9528V178.577H54.8335C54.5749 178.179 54.0977 177.264 52.6062 177.264C50.6772 177.264 49.3448 178.795 49.3448 181.142C49.3448 183.528 50.7369 184.881 52.5863 184.881C54.0778 184.881 54.555 184.006 54.8136 183.588H54.913V185.139C54.913 186.412 54.0181 186.989 52.7852 186.989C51.3981 186.989 50.9109 186.258 50.5977 185.835L49.663 186.491C50.1403 187.292 51.0799 188.023 52.7852 188.023ZM52.7454 183.827C51.2738 183.827 50.5181 182.713 50.5181 181.122C50.5181 179.571 51.2539 178.318 52.7454 178.318C54.1772 178.318 54.9329 179.472 54.9329 181.122C54.9329 182.812 54.1573 183.827 52.7454 183.827ZM60.4812 185.179C61.8136 185.179 62.5096 184.463 62.7482 183.966H62.8079V185H63.9812V179.969C63.9812 177.543 62.1317 177.264 61.1573 177.264C60.0039 177.264 58.6914 177.662 58.0948 179.054L59.2085 179.452C59.467 178.895 60.0785 178.298 61.1971 178.298C62.2759 178.298 62.8079 178.87 62.8079 179.849V179.889C62.8079 180.456 62.2312 180.406 60.8391 180.585C59.4222 180.769 57.8761 181.082 57.8761 182.832C57.8761 184.324 59.0295 185.179 60.4812 185.179ZM60.6602 184.125C59.7255 184.125 59.0494 183.707 59.0494 182.892C59.0494 181.997 59.8647 181.719 60.7795 181.599C61.2766 181.54 62.609 181.401 62.8079 181.162V182.236C62.8079 183.19 62.0522 184.125 60.6602 184.125ZM66.1227 185H67.296V180.227C67.296 179.109 68.1113 178.318 69.0261 178.318C69.916 178.318 70.5375 178.9 70.5375 179.77V185H71.7306V180.028C71.7306 179.044 72.3471 178.318 73.421 178.318C74.2562 178.318 74.9721 178.761 74.9721 179.889V185H76.1454V179.889C76.1454 178.094 75.1809 177.264 73.8187 177.264C72.725 177.264 71.9245 177.766 71.5318 178.557H71.4522C71.0744 177.741 70.4082 177.264 69.4039 177.264C68.4096 177.264 67.6738 177.741 67.3556 178.557H67.2562V177.364H66.1227V185ZM81.4924 185.159C83.0435 185.159 84.177 184.384 84.535 183.23L83.4015 182.912C83.1032 183.707 82.4121 184.105 81.4924 184.105C80.1152 184.105 79.1657 183.215 79.111 181.58H84.6543V181.082C84.6543 178.239 82.964 177.264 81.373 177.264C79.3049 177.264 77.9327 178.895 77.9327 181.241C77.9327 183.588 79.285 185.159 81.4924 185.159ZM79.111 180.565C79.1905 179.377 80.0307 178.318 81.373 178.318C82.6458 178.318 83.4611 179.273 83.4611 180.565H79.111ZM93.6976 177.364H92.0669V175.534H90.8936V177.364H89.7402V178.358H90.8936V183.131C90.8936 184.463 91.9675 185.099 92.9618 185.099C93.3993 185.099 93.6777 185.02 93.8368 184.96L93.5982 183.906C93.4988 183.926 93.3397 183.966 93.0811 183.966C92.5641 183.966 92.0669 183.807 92.0669 182.812V178.358H93.6976V177.364ZM98.4828 185.159C100.551 185.159 101.943 183.588 101.943 181.222C101.943 178.835 100.551 177.264 98.4828 177.264C96.4146 177.264 95.0225 178.835 95.0225 181.222C95.0225 183.588 96.4146 185.159 98.4828 185.159ZM98.4828 184.105C96.9118 184.105 96.1958 182.753 96.1958 181.222C96.1958 179.69 96.9118 178.318 98.4828 178.318C100.054 178.318 100.77 179.69 100.77 181.222C100.77 182.753 100.054 184.105 98.4828 184.105ZM110.993 177.364H109.362V175.534H108.189V177.364H107.035V178.358H108.189V183.131C108.189 184.463 109.262 185.099 110.257 185.099C110.694 185.099 110.973 185.02 111.132 184.96L110.893 183.906C110.794 183.926 110.635 183.966 110.376 183.966C109.859 183.966 109.362 183.807 109.362 182.812V178.358H110.993V177.364ZM114.095 180.406C114.095 179.074 114.945 178.318 116.103 178.318C117.207 178.318 117.873 179.014 117.873 180.227V185H119.047V180.148C119.047 178.184 118.002 177.264 116.441 177.264C115.238 177.264 114.552 177.766 114.194 178.557H114.095V174.818H112.922V185H114.095V180.406ZM124.395 185.159C125.946 185.159 127.079 184.384 127.437 183.23L126.304 182.912C126.006 183.707 125.314 184.105 124.395 184.105C123.018 184.105 122.068 183.215 122.013 181.58H127.557V181.082C127.557 178.239 125.866 177.264 124.275 177.264C122.207 177.264 120.835 178.895 120.835 181.241C120.835 183.588 122.187 185.159 124.395 185.159ZM122.013 180.565C122.093 179.377 122.933 178.318 124.275 178.318C125.548 178.318 126.363 179.273 126.363 180.565H122.013ZM134.452 180.406C134.452 179.074 135.278 178.318 136.401 178.318C137.49 178.318 138.151 179.029 138.151 180.227V185H139.324V180.148C139.324 178.199 138.285 177.264 136.739 177.264C135.586 177.264 134.87 177.781 134.512 178.557H134.412V177.364H133.279V185H134.452V180.406ZM144.67 185.159C146.221 185.159 147.355 184.384 147.713 183.23L146.579 182.912C146.281 183.707 145.59 184.105 144.67 184.105C143.293 184.105 142.343 183.215 142.289 181.58H147.832V181.082C147.832 178.239 146.142 177.264 144.551 177.264C142.483 177.264 141.11 178.895 141.11 181.241C141.11 183.588 142.463 185.159 144.67 185.159ZM142.289 180.565C142.368 179.377 143.208 178.318 144.551 178.318C145.824 178.318 146.639 179.273 146.639 180.565H142.289ZM150.287 177.364H148.934L151.361 181.182L148.934 185H150.287L152.116 182.037L153.946 185H155.298L152.832 181.182L155.298 177.364H153.946L152.116 180.486L150.287 177.364ZM160.293 177.364H158.663V175.534H157.489V177.364H156.336V178.358H157.489V183.131C157.489 184.463 158.563 185.099 159.558 185.099C159.995 185.099 160.273 185.02 160.433 184.96L160.194 183.906C160.094 183.926 159.935 183.966 159.677 183.966C159.16 183.966 158.663 183.807 158.663 182.812V178.358H160.293V177.364ZM162.913 185.08C163.406 185.08 163.808 184.677 163.808 184.185C163.808 183.692 163.406 183.29 162.913 183.29C162.421 183.29 162.018 183.692 162.018 184.185C162.018 184.677 162.421 185.08 162.913 185.08ZM170.01 185H176.235V183.906H171.243V180.446H175.837V179.352H171.243V175.912H176.155V174.818H170.01V185ZM180.466 185.179C181.798 185.179 182.494 184.463 182.733 183.966H182.792V185H183.966V179.969C183.966 177.543 182.116 177.264 181.142 177.264C179.988 177.264 178.676 177.662 178.079 179.054L179.193 179.452C179.451 178.895 180.063 178.298 181.181 178.298C182.26 178.298 182.792 178.87 182.792 179.849V179.889C182.792 180.456 182.216 180.406 180.824 180.585C179.407 180.769 177.86 181.082 177.86 182.832C177.86 184.324 179.014 185.179 180.466 185.179ZM180.645 184.125C179.71 184.125 179.034 183.707 179.034 182.892C179.034 181.997 179.849 181.719 180.764 181.599C181.261 181.54 182.593 181.401 182.792 181.162V182.236C182.792 183.19 182.037 184.125 180.645 184.125ZM189.209 185.159C190.9 185.159 192.013 184.125 192.212 182.773H191.039C190.82 183.608 190.124 184.105 189.209 184.105C187.817 184.105 186.922 182.952 186.922 181.182C186.922 179.452 187.837 178.318 189.209 178.318C190.243 178.318 190.86 178.955 191.039 179.651H192.212C192.013 178.219 190.8 177.264 189.189 177.264C187.121 177.264 185.749 178.895 185.749 181.222C185.749 183.509 187.062 185.159 189.209 185.159ZM195.101 180.406C195.101 179.074 195.951 178.318 197.109 178.318C198.213 178.318 198.879 179.014 198.879 180.227V185H200.052V180.148C200.052 178.184 199.008 177.264 197.447 177.264C196.244 177.264 195.558 177.766 195.2 178.557H195.101V174.818H193.927V185H195.101V180.406ZM209.02 185.159C210.491 185.159 210.989 184.244 211.247 183.827H211.386V185H212.52V174.818H211.347V178.577H211.247C210.989 178.179 210.531 177.264 209.04 177.264C207.111 177.264 205.778 178.795 205.778 181.202C205.778 183.628 207.111 185.159 209.02 185.159ZM209.179 184.105C207.707 184.105 206.952 182.812 206.952 181.182C206.952 179.571 207.688 178.318 209.179 178.318C210.611 178.318 211.366 179.472 211.366 181.182C211.366 182.912 210.591 184.105 209.179 184.105ZM218.033 185.159C219.585 185.159 220.718 184.384 221.076 183.23L219.942 182.912C219.644 183.707 218.953 184.105 218.033 184.105C216.656 184.105 215.707 183.215 215.652 181.58H221.195V181.082C221.195 178.239 219.505 177.264 217.914 177.264C215.846 177.264 214.474 178.895 214.474 181.241C214.474 183.588 215.826 185.159 218.033 185.159ZM215.652 180.565C215.732 179.377 216.572 178.318 217.914 178.318C219.187 178.318 220.002 179.273 220.002 180.565H215.652ZM226.082 185.159C227.773 185.159 228.886 184.125 229.085 182.773H227.912C227.693 183.608 226.997 184.105 226.082 184.105C224.69 184.105 223.795 182.952 223.795 181.182C223.795 179.452 224.71 178.318 226.082 178.318C227.116 178.318 227.733 178.955 227.912 179.651H229.085C228.886 178.219 227.673 177.264 226.062 177.264C223.994 177.264 222.622 178.895 222.622 181.222C222.622 183.509 223.935 185.159 226.082 185.159ZM230.8 185H231.974V177.364H230.8V185ZM231.397 176.091C231.854 176.091 232.232 175.733 232.232 175.295C232.232 174.858 231.854 174.5 231.397 174.5C230.94 174.5 230.562 174.858 230.562 175.295C230.562 175.733 230.94 176.091 231.397 176.091ZM239.532 179.074C239.164 177.99 238.339 177.264 236.827 177.264C235.216 177.264 234.023 178.179 234.023 179.472C234.023 180.526 234.65 181.232 236.052 181.56L237.324 181.858C238.095 182.037 238.458 182.405 238.458 182.932C238.458 183.588 237.762 184.125 236.668 184.125C235.709 184.125 235.107 183.712 234.898 182.892L233.785 183.17C234.058 184.468 235.127 185.159 236.688 185.159C238.463 185.159 239.671 184.19 239.671 182.872C239.671 181.808 239.005 181.137 237.643 180.804L236.509 180.526C235.604 180.302 235.197 179.999 235.197 179.412C235.197 178.756 235.893 178.278 236.827 178.278C237.851 178.278 238.274 178.845 238.478 179.372L239.532 179.074ZM241.437 185H242.61V177.364H241.437V185ZM242.034 176.091C242.491 176.091 242.869 175.733 242.869 175.295C242.869 174.858 242.491 174.5 242.034 174.5C241.576 174.5 241.199 174.858 241.199 175.295C241.199 175.733 241.576 176.091 242.034 176.091ZM247.862 185.159C249.93 185.159 251.322 183.588 251.322 181.222C251.322 178.835 249.93 177.264 247.862 177.264C245.794 177.264 244.401 178.835 244.401 181.222C244.401 183.588 245.794 185.159 247.862 185.159ZM247.862 184.105C246.291 184.105 245.575 182.753 245.575 181.222C245.575 179.69 246.291 178.318 247.862 178.318C249.433 178.318 250.149 179.69 250.149 181.222C250.149 182.753 249.433 184.105 247.862 184.105ZM254.286 180.406C254.286 179.074 255.112 178.318 256.235 178.318C257.324 178.318 257.985 179.029 257.985 180.227V185H259.158V180.148C259.158 178.199 258.119 177.264 256.573 177.264C255.42 177.264 254.704 177.781 254.346 178.557H254.246V177.364H253.113V185H254.286V180.406ZM21.8295 207.864C22.8885 207.864 23.6342 207.302 24.0767 206.114L27.3281 197.384L26.0455 197.364L23.9375 203.449H23.858L21.75 197.364H20.4773L23.3011 205.04L23.0824 205.636C22.6548 206.8 22.1278 206.909 21.2727 206.69L20.9744 207.724C21.0938 207.784 21.4318 207.864 21.8295 207.864ZM31.7093 205.159C33.7775 205.159 35.1696 203.588 35.1696 201.222C35.1696 198.835 33.7775 197.264 31.7093 197.264C29.6412 197.264 28.2491 198.835 28.2491 201.222C28.2491 203.588 29.6412 205.159 31.7093 205.159ZM31.7093 204.105C30.1383 204.105 29.4224 202.753 29.4224 201.222C29.4224 199.69 30.1383 198.318 31.7093 198.318C33.2804 198.318 33.9963 199.69 33.9963 201.222C33.9963 202.753 33.2804 204.105 31.7093 204.105ZM41.7731 201.878C41.7731 203.31 40.6793 203.966 39.8043 203.966C38.8299 203.966 38.1339 203.25 38.1339 202.136V197.364H36.9606V202.216C36.9606 204.165 37.9947 205.099 39.4265 205.099C40.5799 205.099 41.3356 204.483 41.6935 203.707H41.7731V205H42.9464V197.364H41.7731V201.878ZM49.0328 205H50.2061V200.227C50.2061 199.109 51.0215 198.318 51.9363 198.318C52.8262 198.318 53.4476 198.9 53.4476 199.77V205H54.6408V200.028C54.6408 199.044 55.2573 198.318 56.3311 198.318C57.1664 198.318 57.8823 198.761 57.8823 199.889V205H59.0556V199.889C59.0556 198.094 58.0911 197.264 56.7289 197.264C55.6351 197.264 54.8347 197.766 54.4419 198.557H54.3624C53.9846 197.741 53.3184 197.264 52.3141 197.264C51.3198 197.264 50.584 197.741 50.2658 198.557H50.1664V197.364H49.0328V205ZM63.448 205.179C64.7804 205.179 65.4764 204.463 65.715 203.966H65.7747V205H66.948V199.969C66.948 197.543 65.0985 197.264 64.1241 197.264C62.9707 197.264 61.6582 197.662 61.0616 199.054L62.1752 199.452C62.4338 198.895 63.0453 198.298 64.1639 198.298C65.2427 198.298 65.7747 198.87 65.7747 199.849V199.889C65.7747 200.456 65.198 200.406 63.8059 200.585C62.389 200.769 60.8429 201.082 60.8429 202.832C60.8429 204.324 61.9963 205.179 63.448 205.179ZM63.627 204.125C62.6923 204.125 62.0162 203.707 62.0162 202.892C62.0162 201.997 62.8315 201.719 63.7463 201.599C64.2434 201.54 65.5758 201.401 65.7747 201.162V202.236C65.7747 203.19 65.019 204.125 63.627 204.125ZM69.0895 205H70.2628V202.141L71.0831 201.381L73.9418 205H75.4332L71.968 200.625L75.1946 197.364H73.7429L70.402 200.764H70.2628V194.818H69.0895V205ZM79.592 205.159C81.1431 205.159 82.2766 204.384 82.6346 203.23L81.5011 202.912C81.2028 203.707 80.5117 204.105 79.592 204.105C78.2148 204.105 77.2653 203.215 77.2106 201.58H82.7539V201.082C82.7539 198.239 81.0636 197.264 79.4727 197.264C77.4045 197.264 76.0323 198.895 76.0323 201.241C76.0323 203.588 77.3846 205.159 79.592 205.159ZM77.2106 200.565C77.2901 199.377 78.1303 198.318 79.4727 198.318C80.7454 198.318 81.5607 199.273 81.5607 200.565H77.2106ZM90.2063 205H91.3597L93.0302 199.134H93.1495L94.82 205H95.9734L98.3001 197.364H97.0671L95.4165 203.19H95.337L93.7262 197.364H92.4734L90.8427 203.21H90.7631L89.1126 197.364H87.8796L90.2063 205ZM99.8512 205H101.025V197.364H99.8512V205ZM100.448 196.091C100.905 196.091 101.283 195.733 101.283 195.295C101.283 194.858 100.905 194.5 100.448 194.5C99.9904 194.5 99.6126 194.858 99.6126 195.295C99.6126 195.733 99.9904 196.091 100.448 196.091ZM104.347 194.818H103.173V205H104.347V194.818ZM107.669 194.818H106.496V205H107.669V194.818ZM116.858 205.159C118.548 205.159 119.662 204.125 119.861 202.773H118.687C118.469 203.608 117.773 204.105 116.858 204.105C115.466 204.105 114.571 202.952 114.571 201.182C114.571 199.452 115.486 198.318 116.858 198.318C117.892 198.318 118.508 198.955 118.687 199.651H119.861C119.662 198.219 118.449 197.264 116.838 197.264C114.77 197.264 113.398 198.895 113.398 201.222C113.398 203.509 114.71 205.159 116.858 205.159ZM124.678 205.159C126.746 205.159 128.138 203.588 128.138 201.222C128.138 198.835 126.746 197.264 124.678 197.264C122.61 197.264 121.218 198.835 121.218 201.222C121.218 203.588 122.61 205.159 124.678 205.159ZM124.678 204.105C123.107 204.105 122.391 202.753 122.391 201.222C122.391 199.69 123.107 198.318 124.678 198.318C126.249 198.318 126.965 199.69 126.965 201.222C126.965 202.753 126.249 204.105 124.678 204.105ZM131.103 200.406C131.103 199.074 131.928 198.318 133.051 198.318C134.14 198.318 134.801 199.029 134.801 200.227V205H135.975V200.148C135.975 198.199 134.936 197.264 133.39 197.264C132.236 197.264 131.52 197.781 131.162 198.557H131.063V197.364H129.929V205H131.103V200.406ZM141.44 197.364H139.809V195.534H138.636V197.364H137.482V198.358H138.636V203.131C138.636 204.463 139.71 205.099 140.704 205.099C141.142 205.099 141.42 205.02 141.579 204.96L141.34 203.906C141.241 203.926 141.082 203.966 140.823 203.966C140.306 203.966 139.809 203.807 139.809 202.812V198.358H141.44V197.364ZM143.205 205H144.378V200.168C144.378 199.134 145.193 198.378 146.307 198.378C146.62 198.378 146.943 198.438 147.023 198.457V197.264C146.889 197.254 146.58 197.244 146.406 197.244C145.492 197.244 144.696 197.761 144.418 198.517H144.338V197.364H143.205V205ZM151.284 205.159C153.352 205.159 154.744 203.588 154.744 201.222C154.744 198.835 153.352 197.264 151.284 197.264C149.215 197.264 147.823 198.835 147.823 201.222C147.823 203.588 149.215 205.159 151.284 205.159ZM151.284 204.105C149.713 204.105 148.997 202.753 148.997 201.222C148.997 199.69 149.713 198.318 151.284 198.318C152.855 198.318 153.57 199.69 153.57 201.222C153.57 202.753 152.855 204.105 151.284 204.105ZM157.708 194.818H156.535V205H157.708V194.818ZM167.116 197.364H165.485V195.534H164.312V197.364H163.158V198.358H164.312V203.131C164.312 204.463 165.385 205.099 166.38 205.099C166.817 205.099 167.096 205.02 167.255 204.96L167.016 203.906C166.917 203.926 166.758 203.966 166.499 203.966C165.982 203.966 165.485 203.807 165.485 202.812V198.358H167.116V197.364ZM170.218 200.406C170.218 199.074 171.068 198.318 172.226 198.318C173.33 198.318 173.996 199.014 173.996 200.227V205H175.17V200.148C175.17 198.184 174.126 197.264 172.564 197.264C171.361 197.264 170.675 197.766 170.317 198.557H170.218V194.818H169.045V205H170.218V200.406ZM180.518 205.159C182.069 205.159 183.202 204.384 183.56 203.23L182.427 202.912C182.129 203.707 181.438 204.105 180.518 204.105C179.141 204.105 178.191 203.215 178.136 201.58H183.68V201.082C183.68 198.239 181.989 197.264 180.398 197.264C178.33 197.264 176.958 198.895 176.958 201.241C176.958 203.588 178.31 205.159 180.518 205.159ZM178.136 200.565C178.216 199.377 179.056 198.318 180.398 198.318C181.671 198.318 182.487 199.273 182.487 200.565H178.136ZM192.504 205.159C194.572 205.159 195.964 203.588 195.964 201.222C195.964 198.835 194.572 197.264 192.504 197.264C190.436 197.264 189.044 198.835 189.044 201.222C189.044 203.588 190.436 205.159 192.504 205.159ZM192.504 204.105C190.933 204.105 190.217 202.753 190.217 201.222C190.217 199.69 190.933 198.318 192.504 198.318C194.075 198.318 194.791 199.69 194.791 201.222C194.791 202.753 194.075 204.105 192.504 204.105ZM202.568 201.878C202.568 203.31 201.474 203.966 200.599 203.966C199.625 203.966 198.929 203.25 198.929 202.136V197.364H197.756V202.216C197.756 204.165 198.79 205.099 200.221 205.099C201.375 205.099 202.131 204.483 202.488 203.707H202.568V205H203.741V197.364H202.568V201.878ZM209.211 197.364H207.581V195.534H206.407V197.364H205.254V198.358H206.407V203.131C206.407 204.463 207.481 205.099 208.475 205.099C208.913 205.099 209.191 205.02 209.35 204.96L209.112 203.906C209.012 203.926 208.853 203.966 208.595 203.966C208.078 203.966 207.581 203.807 207.581 202.812V198.358H209.211V197.364ZM213.996 205.159C215.687 205.159 216.8 204.125 216.999 202.773H215.826C215.607 203.608 214.911 204.105 213.996 204.105C212.604 204.105 211.71 202.952 211.71 201.182C211.71 199.452 212.624 198.318 213.996 198.318C215.031 198.318 215.647 198.955 215.826 199.651H216.999C216.8 198.219 215.587 197.264 213.977 197.264C211.908 197.264 210.536 198.895 210.536 201.222C210.536 203.509 211.849 205.159 213.996 205.159ZM221.817 205.159C223.885 205.159 225.277 203.588 225.277 201.222C225.277 198.835 223.885 197.264 221.817 197.264C219.749 197.264 218.357 198.835 218.357 201.222C218.357 203.588 219.749 205.159 221.817 205.159ZM221.817 204.105C220.246 204.105 219.53 202.753 219.53 201.222C219.53 199.69 220.246 198.318 221.817 198.318C223.388 198.318 224.104 199.69 224.104 201.222C224.104 202.753 223.388 204.105 221.817 204.105ZM227.068 205H228.241V200.227C228.241 199.109 229.057 198.318 229.971 198.318C230.861 198.318 231.483 198.9 231.483 199.77V205H232.676V200.028C232.676 199.044 233.292 198.318 234.366 198.318C235.202 198.318 235.917 198.761 235.917 199.889V205H237.091V199.889C237.091 198.094 236.126 197.264 234.764 197.264C233.67 197.264 232.87 197.766 232.477 198.557H232.398C232.02 197.741 231.354 197.264 230.349 197.264C229.355 197.264 228.619 197.741 228.301 198.557H228.202V197.364H227.068V205ZM242.438 205.159C243.989 205.159 245.122 204.384 245.48 203.23L244.347 202.912C244.048 203.707 243.357 204.105 242.438 204.105C241.061 204.105 240.111 203.215 240.056 201.58H245.6V201.082C245.6 198.239 243.909 197.264 242.318 197.264C240.25 197.264 238.878 198.895 238.878 201.241C238.878 203.588 240.23 205.159 242.438 205.159ZM240.056 200.565C240.136 199.377 240.976 198.318 242.318 198.318C243.591 198.318 244.406 199.273 244.406 200.565H240.056ZM254.424 205.159C256.492 205.159 257.884 203.588 257.884 201.222C257.884 198.835 256.492 197.264 254.424 197.264C252.356 197.264 250.964 198.835 250.964 201.222C250.964 203.588 252.356 205.159 254.424 205.159ZM254.424 204.105C252.853 204.105 252.137 202.753 252.137 201.222C252.137 199.69 252.853 198.318 254.424 198.318C255.995 198.318 256.711 199.69 256.711 201.222C256.711 202.753 255.995 204.105 254.424 204.105ZM263.076 197.364H261.366V196.588C261.366 195.832 261.684 195.435 262.46 195.435C262.798 195.435 262.996 195.514 263.116 195.554L263.454 194.54C263.275 194.46 262.917 194.341 262.34 194.341C261.246 194.341 260.192 194.997 260.192 196.31V197.364H258.96V198.358H260.192V205H261.366V198.358H263.076V197.364ZM24.2756 225.159C25.8267 225.159 26.9602 224.384 27.3182 223.23L26.1847 222.912C25.8864 223.707 25.1953 224.105 24.2756 224.105C22.8984 224.105 21.9489 223.215 21.8942 221.58H27.4375V221.082C27.4375 218.239 25.7472 217.264 24.1562 217.264C22.0881 217.264 20.7159 218.895 20.7159 221.241C20.7159 223.588 22.0682 225.159 24.2756 225.159ZM21.8942 220.565C21.9737 219.377 22.8139 218.318 24.1562 218.318C25.429 218.318 26.2443 219.273 26.2443 220.565H21.8942ZM35.2342 217.364H33.9615L31.8535 223.449H31.774L29.666 217.364H28.3933L31.2172 225H32.4103L35.2342 217.364ZM39.7111 225.159C41.2623 225.159 42.3958 224.384 42.7537 223.23L41.6202 222.912C41.3219 223.707 40.6309 224.105 39.7111 224.105C38.334 224.105 37.3844 223.215 37.3297 221.58H42.873V221.082C42.873 218.239 41.1827 217.264 39.5918 217.264C37.5236 217.264 36.1515 218.895 36.1515 221.241C36.1515 223.588 37.5037 225.159 39.7111 225.159ZM37.3297 220.565C37.4093 219.377 38.2495 218.318 39.5918 218.318C40.8645 218.318 41.6799 219.273 41.6799 220.565H37.3297ZM44.6578 225H45.8311V220.168C45.8311 219.134 46.6465 218.378 47.7601 218.378C48.0733 218.378 48.3965 218.438 48.476 218.457V217.264C48.3418 217.254 48.0336 217.244 47.8596 217.244C46.9448 217.244 46.1493 217.761 45.8709 218.517H45.7914V217.364H44.6578V225ZM50.8549 227.864C51.9139 227.864 52.6596 227.302 53.1021 226.114L56.3535 217.384L55.0708 217.364L52.9629 223.449H52.8833L50.7754 217.364H49.5027L52.3265 225.04L52.1078 225.636C51.6802 226.8 51.1532 226.909 50.2981 226.69L49.9998 227.724C50.1191 227.784 50.4572 227.864 50.8549 227.864ZM61.8434 225H63.0167V220.227C63.0167 219.109 63.832 218.318 64.7468 218.318C65.6367 218.318 66.2582 218.9 66.2582 219.77V225H67.4513V220.028C67.4513 219.044 68.0678 218.318 69.1417 218.318C69.9769 218.318 70.6928 218.761 70.6928 219.889V225H71.8661V219.889C71.8661 218.094 70.9016 217.264 69.5394 217.264C68.4457 217.264 67.6452 217.766 67.2525 218.557H67.1729C66.7951 217.741 66.1289 217.264 65.1246 217.264C64.1303 217.264 63.3945 217.741 63.0763 218.557H62.9769V217.364H61.8434V225ZM74.0114 225H75.1847V217.364H74.0114V225ZM74.608 216.091C75.0653 216.091 75.4432 215.733 75.4432 215.295C75.4432 214.858 75.0653 214.5 74.608 214.5C74.1506 214.5 73.7727 214.858 73.7727 215.295C73.7727 215.733 74.1506 216.091 74.608 216.091ZM82.7427 219.074C82.3748 217.99 81.5495 217.264 80.0382 217.264C78.4274 217.264 77.2342 218.179 77.2342 219.472C77.2342 220.526 77.8606 221.232 79.2626 221.56L80.5353 221.858C81.3059 222.037 81.6689 222.405 81.6689 222.932C81.6689 223.588 80.9728 224.125 79.8791 224.125C78.9196 224.125 78.318 223.712 78.1092 222.892L76.9956 223.17C77.269 224.468 78.3379 225.159 79.899 225.159C81.6738 225.159 82.8819 224.19 82.8819 222.872C82.8819 221.808 82.2157 221.137 80.8535 220.804L79.72 220.526C78.8152 220.302 78.4075 219.999 78.4075 219.412C78.4075 218.756 79.1035 218.278 80.0382 218.278C81.0623 218.278 81.4849 218.845 81.6887 219.372L82.7427 219.074ZM90.0572 219.074C89.6893 217.99 88.864 217.264 87.3526 217.264C85.7418 217.264 84.5487 218.179 84.5487 219.472C84.5487 220.526 85.1751 221.232 86.5771 221.56L87.8498 221.858C88.6204 222.037 88.9833 222.405 88.9833 222.932C88.9833 223.588 88.2873 224.125 87.1935 224.125C86.234 224.125 85.6325 223.712 85.4237 222.892L84.31 223.17C84.5835 224.468 85.6523 225.159 87.2134 225.159C88.9883 225.159 90.1964 224.19 90.1964 222.872C90.1964 221.808 89.5302 221.137 88.168 220.804L87.0344 220.526C86.1296 220.302 85.7219 219.999 85.7219 219.412C85.7219 218.756 86.418 218.278 87.3526 218.278C88.3768 218.278 88.7994 218.845 89.0032 219.372L90.0572 219.074ZM91.9625 225H93.1358V217.364H91.9625V225ZM92.5591 216.091C93.0165 216.091 93.3944 215.733 93.3944 215.295C93.3944 214.858 93.0165 214.5 92.5591 214.5C92.1017 214.5 91.7239 214.858 91.7239 215.295C91.7239 215.733 92.1017 216.091 92.5591 216.091ZM98.3871 225.159C100.455 225.159 101.847 223.588 101.847 221.222C101.847 218.835 100.455 217.264 98.3871 217.264C96.3189 217.264 94.9268 218.835 94.9268 221.222C94.9268 223.588 96.3189 225.159 98.3871 225.159ZM98.3871 224.105C96.8161 224.105 96.1001 222.753 96.1001 221.222C96.1001 219.69 96.8161 218.318 98.3871 218.318C99.9581 218.318 100.674 219.69 100.674 221.222C100.674 222.753 99.9581 224.105 98.3871 224.105ZM104.812 220.406C104.812 219.074 105.637 218.318 106.76 218.318C107.849 218.318 108.51 219.029 108.51 220.227V225H109.684V220.148C109.684 218.199 108.645 217.264 107.099 217.264C105.945 217.264 105.229 217.781 104.871 218.557H104.772V217.364H103.638V225H104.812V220.406ZM113.578 223.608H112.305L112.245 224.165C112.101 225.512 111.818 226.854 111.689 227.486H112.583C112.822 226.81 113.329 225.278 113.498 224.145L113.578 223.608ZM119.689 225H120.862V220.168C120.862 219.134 121.678 218.378 122.791 218.378C123.105 218.378 123.428 218.438 123.507 218.457V217.264C123.373 217.254 123.065 217.244 122.891 217.244C121.976 217.244 121.181 217.761 120.902 218.517H120.823V217.364H119.689V225ZM127.867 225.159C129.419 225.159 130.552 224.384 130.91 223.23L129.776 222.912C129.478 223.707 128.787 224.105 127.867 224.105C126.49 224.105 125.541 223.215 125.486 221.58H131.029V221.082C131.029 218.239 129.339 217.264 127.748 217.264C125.68 217.264 124.308 218.895 124.308 221.241C124.308 223.588 125.66 225.159 127.867 225.159ZM125.486 220.565C125.566 219.377 126.406 218.318 127.748 218.318C129.021 218.318 129.836 219.273 129.836 220.565H125.486ZM133.987 214.818H132.814V225H133.987V214.818ZM138.384 225.179C139.716 225.179 140.412 224.463 140.651 223.966H140.71V225H141.884V219.969C141.884 217.543 140.034 217.264 139.06 217.264C137.906 217.264 136.594 217.662 135.997 219.054L137.111 219.452C137.369 218.895 137.981 218.298 139.099 218.298C140.178 218.298 140.71 218.87 140.71 219.849V219.889C140.71 220.456 140.134 220.406 138.741 220.585C137.325 220.769 135.778 221.082 135.778 222.832C135.778 224.324 136.932 225.179 138.384 225.179ZM138.562 224.125C137.628 224.125 136.952 223.707 136.952 222.892C136.952 221.997 137.767 221.719 138.682 221.599C139.179 221.54 140.511 221.401 140.71 221.162V222.236C140.71 223.19 139.955 224.125 138.562 224.125ZM147.346 217.364H145.715V215.534H144.542V217.364H143.389V218.358H144.542V223.131C144.542 224.463 145.616 225.099 146.61 225.099C147.048 225.099 147.326 225.02 147.485 224.96L147.247 223.906C147.147 223.926 146.988 223.966 146.73 223.966C146.213 223.966 145.715 223.807 145.715 222.812V218.358H147.346V217.364ZM149.111 225H150.284V217.364H149.111V225ZM149.708 216.091C150.165 216.091 150.543 215.733 150.543 215.295C150.543 214.858 150.165 214.5 149.708 214.5C149.25 214.5 148.872 214.858 148.872 215.295C148.872 215.733 149.25 216.091 149.708 216.091ZM155.536 225.159C157.604 225.159 158.996 223.588 158.996 221.222C158.996 218.835 157.604 217.264 155.536 217.264C153.467 217.264 152.075 218.835 152.075 221.222C152.075 223.588 153.467 225.159 155.536 225.159ZM155.536 224.105C153.964 224.105 153.249 222.753 153.249 221.222C153.249 219.69 153.964 218.318 155.536 218.318C157.107 218.318 157.822 219.69 157.822 221.222C157.822 222.753 157.107 224.105 155.536 224.105ZM161.96 220.406C161.96 219.074 162.785 218.318 163.909 218.318C164.998 218.318 165.659 219.029 165.659 220.227V225H166.832V220.148C166.832 218.199 165.793 217.264 164.247 217.264C163.094 217.264 162.378 217.781 162.02 218.557H161.92V217.364H160.787V225H161.96V220.406ZM174.385 219.074C174.017 217.99 173.192 217.264 171.681 217.264C170.07 217.264 168.877 218.179 168.877 219.472C168.877 220.526 169.503 221.232 170.905 221.56L172.178 221.858C172.949 222.037 173.311 222.405 173.311 222.932C173.311 223.588 172.615 224.125 171.522 224.125C170.562 224.125 169.961 223.712 169.752 222.892L168.638 223.17C168.912 224.468 169.98 225.159 171.542 225.159C173.316 225.159 174.525 224.19 174.525 222.872C174.525 221.808 173.858 221.137 172.496 220.804L171.363 220.526C170.458 220.302 170.05 219.999 170.05 219.412C170.05 218.756 170.746 218.278 171.681 218.278C172.705 218.278 173.127 218.845 173.331 219.372L174.385 219.074ZM177.464 220.406C177.464 219.074 178.314 218.318 179.472 218.318C180.576 218.318 181.242 219.014 181.242 220.227V225H182.416V220.148C182.416 218.184 181.372 217.264 179.811 217.264C178.607 217.264 177.921 217.766 177.563 218.557H177.464V214.818H176.291V225H177.464V220.406ZM184.562 225H185.735V217.364H184.562V225ZM185.159 216.091C185.616 216.091 185.994 215.733 185.994 215.295C185.994 214.858 185.616 214.5 185.159 214.5C184.701 214.5 184.324 214.858 184.324 215.295C184.324 215.733 184.701 216.091 185.159 216.091ZM187.884 227.864H189.058V223.827H189.157C189.416 224.244 189.913 225.159 191.384 225.159C193.294 225.159 194.626 223.628 194.626 221.202C194.626 218.795 193.294 217.264 191.365 217.264C189.873 217.264 189.416 218.179 189.157 218.577H189.018V217.364H187.884V227.864ZM189.038 221.182C189.038 219.472 189.794 218.318 191.225 218.318C192.717 218.318 193.453 219.571 193.453 221.182C193.453 222.812 192.697 224.105 191.225 224.105C189.813 224.105 189.038 222.912 189.038 221.182ZM198.166 223.608H196.893L196.833 224.165C196.689 225.512 196.406 226.854 196.276 227.486H197.171C197.41 226.81 197.917 225.278 198.086 224.145L198.166 223.608ZM204.436 225H205.57V223.827H205.709C205.967 224.244 206.464 225.159 207.936 225.159C209.845 225.159 211.178 223.628 211.178 221.202C211.178 218.795 209.845 217.264 207.916 217.264C206.425 217.264 205.967 218.179 205.709 218.577H205.609V214.818H204.436V225ZM205.589 221.182C205.589 219.472 206.345 218.318 207.777 218.318C209.268 218.318 210.004 219.571 210.004 221.182C210.004 222.812 209.249 224.105 207.777 224.105C206.365 224.105 205.589 222.912 205.589 221.182ZM215.219 225.179C216.552 225.179 217.248 224.463 217.487 223.966H217.546V225H218.719V219.969C218.719 217.543 216.87 217.264 215.896 217.264C214.742 217.264 213.43 217.662 212.833 219.054L213.947 219.452C214.205 218.895 214.817 218.298 215.935 218.298C217.014 218.298 217.546 218.87 217.546 219.849V219.889C217.546 220.456 216.969 220.406 215.577 220.585C214.161 220.769 212.614 221.082 212.614 222.832C212.614 224.324 213.768 225.179 215.219 225.179ZM215.398 224.125C214.464 224.125 213.788 223.707 213.788 222.892C213.788 221.997 214.603 221.719 215.518 221.599C216.015 221.54 217.347 221.401 217.546 221.162V222.236C217.546 223.19 216.79 224.125 215.398 224.125ZM224.182 217.364H222.551V215.534H221.378V217.364H220.225V218.358H221.378V223.131C221.378 224.463 222.452 225.099 223.446 225.099C223.884 225.099 224.162 225.02 224.321 224.96L224.083 223.906C223.983 223.926 223.824 223.966 223.566 223.966C223.048 223.966 222.551 223.807 222.551 222.812V218.358H224.182V217.364ZM229.268 217.364H227.637V215.534H226.464V217.364H225.311V218.358H226.464V223.131C226.464 224.463 227.538 225.099 228.532 225.099C228.97 225.099 229.248 225.02 229.407 224.96L229.169 223.906C229.069 223.926 228.91 223.966 228.651 223.966C228.134 223.966 227.637 223.807 227.637 222.812V218.358H229.268V217.364ZM232.37 214.818H231.197V225H232.37V214.818ZM237.721 225.159C239.272 225.159 240.406 224.384 240.763 223.23L239.63 222.912C239.332 223.707 238.641 224.105 237.721 224.105C236.344 224.105 235.394 223.215 235.339 221.58H240.883V221.082C240.883 218.239 239.192 217.264 237.602 217.264C235.533 217.264 234.161 218.895 234.161 221.241C234.161 223.588 235.513 225.159 237.721 225.159ZM235.339 220.565C235.419 219.377 236.259 218.318 237.602 218.318C238.874 218.318 239.69 219.273 239.69 220.565H235.339ZM243.523 225.08C244.015 225.08 244.418 224.677 244.418 224.185C244.418 223.692 244.015 223.29 243.523 223.29C243.031 223.29 242.628 223.692 242.628 224.185C242.628 224.677 243.031 225.08 243.523 225.08Z" fill="white"/>
</svg>
