<svg width="24" height="24" viewBox="0 0 24 24" fill="none" xmlns="http://www.w3.org/2000/svg">
<path fill-rule="evenodd" clip-rule="evenodd" d="M3.72196 20.2781C8.29395 24.8501 15.7066 24.8501 20.2786 20.2781C24.8506 15.7061 24.8506 8.29347 20.2786 3.72147C15.7066 -0.850517 8.29395 -0.850517 3.72196 3.72147C-0.850029 8.29347 -0.850029 15.7061 3.72196 20.2781ZM4.60341 18.4103C4.3308 18.6829 3.90802 18.6626 3.66591 18.3623C3.66591 18.3623 3.80458 18.5437 3.66255 18.3579C0.520052 14.2477 0.828157 8.34508 4.58686 4.58637C8.68118 0.492053 15.3194 0.492053 19.4137 4.58637C23.508 8.68069 23.508 15.3189 19.4137 19.4132C15.6561 23.1708 9.75579 23.4799 5.64575 20.3403C5.45877 20.1974 5.63686 20.3334 5.63686 20.3334C5.33831 20.0887 5.31546 19.6712 5.5899 19.3967L14.5241 10.4625C14.6603 10.3264 14.7704 10.3718 14.7701 10.5628L14.7644 15.4417C14.7632 16.3727 16.1598 16.3715 16.1608 15.4402L16.1976 8.65149C16.2007 8.16972 15.8117 7.78271 15.3263 7.7871L8.55992 7.83941C7.6287 7.84038 7.62724 9.23671 8.55846 9.23574L13.4374 9.23003C13.6289 9.22975 13.6747 9.33899 13.5376 9.47603L4.60341 18.4103Z" fill="#F16622"/>
</svg>
