<svg width="17" height="17" viewBox="0 0 17 17" fill="none" xmlns="http://www.w3.org/2000/svg">
<path fill-rule="evenodd" clip-rule="evenodd" d="M2.48959 14.5104C5.80905 17.8299 11.1909 17.8299 14.5104 14.5104C17.8299 11.1909 17.8299 5.80905 14.5104 2.48959C11.1909 -0.829864 5.80905 -0.829864 2.48959 2.48959C-0.829864 5.80905 -0.829864 11.1909 2.48959 14.5104ZM3.12956 13.1543C2.93163 13.3522 2.62467 13.3375 2.44889 13.1194C2.44889 13.1194 2.54958 13.2511 2.44645 13.1162C0.164871 10.1321 0.388569 5.84652 3.11754 3.11754C6.09019 0.144898 10.9098 0.144898 13.8824 3.11754C16.8551 6.09019 16.8551 10.9098 13.8824 13.8824C11.1543 16.6106 6.8704 16.835 3.88634 14.5555C3.75059 14.4518 3.87989 14.5506 3.87989 14.5506C3.66313 14.3729 3.64654 14.0697 3.84579 13.8705L10.3324 7.38386C10.4313 7.28502 10.5112 7.31803 10.511 7.45664L10.5069 10.999C10.506 11.6749 11.52 11.674 11.5207 10.9979L11.5474 6.06899C11.5496 5.7192 11.2672 5.43822 10.9148 5.44141L6.00215 5.47938C5.32604 5.48008 5.32499 6.49388 6.00109 6.49318L9.5434 6.48903C9.68245 6.48883 9.71569 6.56814 9.61619 6.66764L3.12956 13.1543Z" fill="#F16622"/>
</svg>
