<svg width="40" height="40" viewBox="0 0 40 40" fill="none" xmlns="http://www.w3.org/2000/svg">
<path fill-rule="evenodd" clip-rule="evenodd" d="M0.487328 20.0005C0.487328 30.7768 9.22323 39.5127 19.9995 39.5127C30.7758 39.5127 39.5117 30.7768 39.5117 20.0005C39.5117 9.22419 30.7758 0.488281 19.9995 0.488281C9.22323 0.488281 0.487328 9.22419 0.487328 20.0005ZM3.72742 18.838C3.08486 18.838 2.61046 18.3159 2.6791 17.6766C2.6791 17.6766 2.62876 18.0538 2.68031 17.6675C3.82074 9.12009 11.1402 2.52687 19.9995 2.52687C29.6499 2.52687 37.4731 10.3501 37.4731 20.0005C37.4731 29.6509 29.6499 37.4741 19.9995 37.4741C11.1427 37.4741 3.82498 30.8847 2.6813 22.3409C2.62927 21.9522 2.67886 22.3224 2.67886 22.3224C2.61541 21.6822 3.08056 21.1631 3.72742 21.1631H24.7856C25.1065 21.1631 25.1827 21.3465 24.9574 21.5712L19.2008 27.3144C18.1022 28.4101 19.7495 30.0546 20.8481 28.9582L28.8921 21.001C29.4635 20.4369 29.4612 19.5224 28.884 18.9555L20.8481 11.0429C19.7495 9.94659 18.1022 11.5905 19.2008 12.6868L24.9574 18.4299C25.1834 18.6553 25.1086 18.838 24.7856 18.838H3.72742Z" fill="#F16622"/>
</svg>
