<svg width="50" height="50" viewBox="0 0 50 50" fill="none" xmlns="http://www.w3.org/2000/svg">
<circle cx="25" cy="25" r="25" fill="white"/>
<path d="M33.5303 18.4697C33.2374 18.1768 32.7626 18.1768 32.4697 18.4697C32.1768 18.7626 32.1768 19.2374 32.4697 19.5303L33.5303 18.4697ZM39 25L39.5303 25.5303C39.8232 25.2374 39.8232 24.7626 39.5303 24.4697L39 25ZM32.4697 30.4697C32.1768 30.7626 32.1768 31.2374 32.4697 31.5303C32.7626 31.8232 33.2374 31.8232 33.5303 31.5303L32.4697 30.4697ZM32.4697 19.5303L38.4697 25.5303L39.5303 24.4697L33.5303 18.4697L32.4697 19.5303ZM38.4697 24.4697L32.4697 30.4697L33.5303 31.5303L39.5303 25.5303L38.4697 24.4697Z" fill="#214098"/>
<path d="M17.4697 31.5303C17.7626 31.8232 18.2374 31.8232 18.5303 31.5303C18.8232 31.2374 18.8232 30.7626 18.5303 30.4697L17.4697 31.5303ZM12 25L11.4697 24.4697C11.1768 24.7626 11.1768 25.2374 11.4697 25.5303L12 25ZM18.5303 19.5303C18.8232 19.2374 18.8232 18.7626 18.5303 18.4697C18.2374 18.1768 17.7626 18.1768 17.4697 18.4697L18.5303 19.5303ZM18.5303 30.4697L12.5303 24.4697L11.4697 25.5303L17.4697 31.5303L18.5303 30.4697ZM12.5303 25.5303L18.5303 19.5303L17.4697 18.4697L11.4697 24.4697L12.5303 25.5303Z" fill="#214098"/>
</svg>
