<svg width="24" height="24" viewBox="0 0 24 24" fill="none" xmlns="http://www.w3.org/2000/svg">
<g clip-path="url(#clip0_503_2995)">
<path fill-rule="evenodd" clip-rule="evenodd" d="M3.72168 20.2774C8.29367 24.8493 15.7063 24.8493 20.2783 20.2774C24.8503 15.7054 24.8503 8.2927 20.2783 3.72071C15.7063 -0.851285 8.29367 -0.851285 3.72168 3.72071C-0.850314 8.2927 -0.850314 15.7054 3.72168 20.2774ZM4.60313 18.4095C4.33052 18.6821 3.90773 18.6619 3.66562 18.3615C3.66562 18.3615 3.8043 18.5429 3.66226 18.3571C0.519767 14.2469 0.827871 8.34431 4.58658 4.58561C8.6809 0.491285 15.3191 0.491285 19.4134 4.58561C23.5077 8.67993 23.5077 15.3181 19.4134 19.4125C15.6558 23.1701 9.7555 23.4791 5.64547 20.3395C5.45848 20.1967 5.63658 20.3327 5.63658 20.3327C5.33803 20.088 5.31517 19.6704 5.58961 19.396L14.5238 10.4617C14.66 10.3256 14.7701 10.3711 14.7698 10.562L14.7641 15.4409C14.7629 16.3719 16.1595 16.3707 16.1605 15.4395L16.1973 8.65073C16.2004 8.16895 15.8114 7.78194 15.326 7.78634L8.55963 7.83864C7.62841 7.83961 7.62696 9.23595 8.55818 9.23498L13.4371 9.22926C13.6286 9.22898 13.6744 9.33822 13.5374 9.47526L4.60313 18.4095Z" fill="white"/>
</g>
<defs>
<clipPath id="clip0_503_2995">
<rect width="24" height="24" fill="white"/>
</clipPath>
</defs>
</svg>
