<svg width="64" height="50" viewBox="0 0 64 50" fill="none" xmlns="http://www.w3.org/2000/svg">
<path d="M1.43533 36.386C-0.947645 37.9915 -0.153319 41.0419 4.93037 42.4869C10.1729 44.2529 15.8921 44.7346 21.4524 43.7713C21.7701 43.7713 22.0878 43.6107 22.2467 43.6107V38.152L16.8453 39.9181C14.78 40.5603 12.7148 40.7208 10.6495 40.2392C9.06087 39.7575 9.3786 38.7942 11.285 37.9915L22.2467 34.1383V28.1979L6.99562 33.4961C5.08923 34.1383 3.18285 35.1016 1.43533 36.386ZM38.2921 12.3034V27.8768C44.8055 31.0878 49.8892 27.8768 49.8892 19.5282C49.8892 11.019 46.8708 7.16578 38.1332 4.11532C33.5261 2.50982 28.7602 1.06487 23.9942 0.101562V46.5006L35.1148 49.8722V10.8584C35.1148 9.09239 35.1148 7.80798 36.3857 8.28964C38.1332 8.77129 38.2921 10.5373 38.2921 12.3034ZM58.9446 32.6933C54.3375 31.0878 49.4126 30.4456 44.6467 30.9272C42.1048 31.0878 39.7219 31.73 37.4977 32.5328L37.0212 32.6933V38.9548L47.3474 35.1016C49.4126 34.4594 51.4779 34.2988 53.5431 34.7805C55.1318 35.2621 54.8141 36.2254 52.9077 37.0282L37.0212 42.9685V49.0695L58.9446 40.8814C60.5332 40.2392 61.963 39.4364 63.2339 38.152C64.346 36.5465 63.8694 34.2988 58.9446 32.6933Z" fill="white"/>
</svg>
