<svg width="37" height="50" viewBox="0 0 37 50" fill="none" xmlns="http://www.w3.org/2000/svg">
<path d="M17.8741 0.107652C18.1396 -0.0436314 18.5322 0.0687808 18.6234 0.382904C18.7218 0.642397 18.5517 0.879828 18.4123 1.08049C17.4251 2.51453 16.7701 4.18075 16.4606 5.90475C16.273 5.9867 16.2187 6.18841 16.2771 6.37856C16.3693 6.41323 16.4626 6.4437 16.5569 6.47312C18.4727 6.30082 20.4162 6.33654 22.3023 6.74942C25.7341 7.45751 28.9415 9.23719 31.4067 11.7817C33.8648 14.2999 35.5899 17.563 36.288 21.0541C37.0619 24.8341 36.6293 28.8578 35.0815 32.3783C31.7993 39.5674 26.2661 45.6482 19.4957 49.5028C19.2774 49.6068 18.9627 49.611 18.813 49.3882C18.6367 49.155 18.7095 48.823 18.8838 48.6108C19.7971 47.305 20.4347 45.8037 20.7811 44.2383C20.8478 43.9137 20.939 43.5848 20.9113 43.2508C20.7996 43.1016 20.6151 43.1468 20.4582 43.152C17.172 43.4892 13.7903 42.8873 10.8208 41.3996C7.64006 39.829 4.94112 37.2614 3.15652 34.1401C1.50312 31.2689 0.633884 27.9249 0.694362 24.5893C0.705637 21.5279 1.52055 18.4917 2.95561 15.8117C6.29623 9.23824 11.5414 3.69118 17.8741 0.107652ZM17.6896 17.6744C15.7348 17.9433 13.9318 19.12 12.837 20.7967C12.0959 21.9482 11.647 23.316 11.6562 24.7007C11.6008 26.556 12.3225 28.4145 13.573 29.7508C14.6657 30.9569 16.1838 31.7427 17.7757 31.9528C19.3963 32.1724 21.0886 31.7837 22.4612 30.8707C23.8563 29.963 24.9192 28.53 25.3949 26.9069C26.2877 24.0892 25.2175 20.7883 22.8886 19.0475C21.4259 17.9066 19.508 17.4002 17.6896 17.6744Z" fill="white"/>
</svg>
