<svg width="50" height="50" viewBox="0 0 50 50" fill="none" xmlns="http://www.w3.org/2000/svg">
<path d="M22.5739 49.381C18.808 49.0202 14.9955 47.668 11.7205 45.531C8.97614 43.7413 8.35682 43.0043 8.35682 41.5356C8.35682 38.585 11.6011 33.4163 17.1523 27.5254C20.304 24.1788 24.6949 20.2583 25.1693 20.364C26.0932 20.5702 33.4739 27.7697 36.2375 31.1594C40.6068 36.5174 42.6148 40.906 41.5943 42.8623C40.8188 44.3492 36.0051 47.256 32.4693 48.3725C29.5545 49.293 25.7267 49.6827 22.5739 49.381ZM4.65 38.468C2.36932 34.9691 1.21705 31.5248 0.661366 26.543C0.477275 24.8981 0.542048 23.9577 1.07784 20.5805C1.74432 16.3759 4.14034 11.5066 7.02103 8.51228C8.24716 7.23955 8.35625 7.20546 9.85171 7.71115C11.6642 8.32478 13.6017 9.66342 16.6074 12.3816L18.3631 13.9691L17.4028 15.1452C12.9551 20.6055 8.2608 28.3498 6.49375 33.1396C5.53352 35.7418 5.14716 38.3555 5.56193 39.4435C5.84034 40.1788 5.58466 39.9049 4.64716 38.4697L4.65 38.468ZM44.6801 39.0629C44.9057 37.9629 44.6205 35.9435 43.9528 33.906C42.5068 29.4941 37.6722 21.2867 33.233 15.706L31.8352 13.9492L33.3477 12.5611C35.3216 10.7486 36.692 9.66342 38.1716 8.74126C39.3381 8.01399 41.0057 7.37024 41.7227 7.37024C42.1642 7.37024 43.7205 8.98956 44.9761 10.7509C46.9216 13.4782 48.3523 16.7907 49.0773 20.2339C49.546 22.4611 49.5852 27.2225 49.1528 29.4441C48.7949 31.2668 48.0449 33.6293 47.3176 35.2322C46.7665 36.4327 45.4085 38.7651 44.8119 39.5242C44.5051 39.9146 44.5051 39.914 44.6756 39.0719L44.6801 39.0629ZM22.9773 6.53728C20.9284 5.49751 17.7682 4.38103 16.0227 4.0799C15.4114 3.97478 14.3676 3.91512 13.7045 3.94921C12.2636 4.02194 12.3278 3.94694 14.6381 2.85546C16.5585 1.94808 18.1608 1.41455 20.3369 0.957736C22.783 0.443532 27.3824 0.43785 29.7898 0.945236C32.3892 1.49353 35.4511 2.63274 37.1761 3.69524L37.6898 4.01001L36.5136 3.95092C34.175 3.83274 30.767 4.77762 27.108 6.55717C26.0045 7.09467 25.0455 7.52308 24.975 7.51171C24.9051 7.49808 24.0057 7.06001 22.975 6.53728H22.9773Z" fill="white"/>
</svg>
