<svg width="50" height="50" viewBox="0 0 50 50" fill="none" xmlns="http://www.w3.org/2000/svg">
<g clip-path="url(#clip0_503_2916)">
<path d="M1.0504 32.191C4.13902 42.4936 13.6933 50 25.001 50C38.8079 50 50.001 38.8069 50.001 25C50.001 11.1929 38.8079 0 25.001 0C11.7519 0 0.910911 10.3067 0.0546875 23.3391C1.67252 26.0558 2.30383 27.7361 1.05063 32.191H1.0504Z" fill="white"/>
<path d="M23.7115 18.7377C23.7115 18.7798 23.7115 18.8218 23.7137 18.8613L17.5961 27.748C16.6051 27.703 15.6107 27.8768 14.6678 28.2652C14.2521 28.4347 13.8626 28.6429 13.4972 28.8832L0.0638911 23.3532C0.0639963 23.3532 -0.246946 28.4669 1.04844 32.2781L10.545 36.1965C11.0218 38.3274 12.4836 40.1965 14.6403 41.0957C18.1688 42.5699 22.2373 40.8897 23.7051 37.3596C24.0871 36.4369 24.2652 35.469 24.2394 34.5034L32.9926 28.248C33.0635 28.2502 33.1364 28.2523 33.2072 28.2523C38.4454 28.2523 42.7029 23.9819 42.7029 18.7377C42.7029 13.4931 38.4454 9.22656 33.2072 9.22656C27.9712 9.22656 23.7115 13.4931 23.7115 18.7377ZM22.2437 36.7459C21.1077 39.4733 17.9733 40.7673 15.2489 39.6321C13.992 39.1085 13.0431 38.1493 12.4957 37.0055L15.5869 38.2866C17.5961 39.1236 19.9012 38.1708 20.7364 36.1622C21.5742 34.1515 20.6238 31.8424 18.6156 31.0055L15.4201 29.6815C16.6532 29.2137 18.0549 29.1965 19.3645 29.7416C20.6849 30.2909 21.7094 31.3253 22.2523 32.6472C22.7952 33.969 22.7931 35.4283 22.2437 36.7459ZM33.2072 25.0763C29.7201 25.0763 26.8811 22.233 26.8811 18.7377C26.8811 15.2452 29.7201 12.401 33.2072 12.401C36.6965 12.401 39.5356 15.2452 39.5356 18.7377C39.5356 22.233 36.6965 25.0763 33.2072 25.0763ZM28.4669 18.7281C28.4669 16.0987 30.5957 13.966 33.218 13.966C35.8424 13.966 37.9712 16.0987 37.9712 18.7281C37.9712 21.3577 35.8424 23.4884 33.218 23.4884C30.5957 23.4884 28.4669 21.3577 28.4669 18.7281Z" fill="#525358"/>
</g>
<defs>
<clipPath id="clip0_503_2916">
<rect width="50" height="50" fill="white"/>
</clipPath>
</defs>
</svg>
