<svg width="24" height="24" viewBox="0 0 24 24" fill="none" xmlns="http://www.w3.org/2000/svg">
<path fill-rule="evenodd" clip-rule="evenodd" d="M6.75079 13.0611C6.55177 13.0613 6.36084 12.9823 6.22001 12.8417C6.07918 12.7011 5.99999 12.5102 5.99985 12.3112C5.99971 12.1122 6.07863 11.9213 6.21926 11.7804C6.35989 11.6396 6.55071 11.5604 6.74973 11.5603L15.4397 11.5613L12.5038 8.62543C12.3632 8.48478 12.2841 8.29401 12.2841 8.0951C12.2841 7.89619 12.3632 7.70542 12.5038 7.56477C12.6445 7.42412 12.8352 7.3451 13.0341 7.3451C13.2331 7.3451 13.4238 7.42412 13.5645 7.56477L17.7806 11.7809C17.9213 11.9215 18.0003 12.1123 18.0003 12.3112C18.0003 12.5101 17.9213 12.7009 17.7806 12.8416L13.5645 17.0577C13.4238 17.1983 13.2331 17.2773 13.0341 17.2773C12.8352 17.2773 12.6445 17.1983 12.5038 17.0577C12.3632 16.917 12.2841 16.7263 12.2841 16.5273C12.2841 16.3284 12.3632 16.1377 12.5038 15.997L15.4397 13.0611L6.75079 13.0611Z" fill="#191A1E"/>
</svg>
