<svg width="45" height="48" viewBox="0 0 45 48" fill="none" xmlns="http://www.w3.org/2000/svg">
<g filter="url(#filter0_d_623_2965)">
<path fill-rule="evenodd" clip-rule="evenodd" d="M12.6583 24.4893C12.2851 24.4896 11.9271 24.3416 11.6631 24.0779C11.399 23.8142 11.2505 23.4565 11.2503 23.0833C11.25 22.7101 11.398 22.3521 11.6617 22.0881C11.9254 21.824 12.2831 21.6755 12.6563 21.6753L28.95 21.6773L23.4452 16.1724C23.1815 15.9087 23.0333 15.551 23.0333 15.1781C23.0333 14.8051 23.1815 14.4474 23.4452 14.1837C23.7089 13.92 24.0666 13.7718 24.4396 13.7718C24.8125 13.7718 25.1702 13.92 25.4339 14.1837L33.3392 22.0889C33.6029 22.3527 33.7511 22.7103 33.7511 23.0833C33.7511 23.4563 33.6029 23.8139 33.3392 24.0777L25.4339 31.9829C25.1702 32.2466 24.8125 32.3948 24.4396 32.3948C24.0666 32.3948 23.7089 32.2466 23.4452 31.9829C23.1815 31.7192 23.0333 31.3615 23.0333 30.9885C23.0333 30.6156 23.1815 30.2579 23.4452 29.9942L28.95 24.4893L12.6583 24.4893Z" fill="white"/>
</g>
<defs>
<filter id="filter0_d_623_2965" x="3.75" y="13.7719" width="37.502" height="33.6229" filterUnits="userSpaceOnUse" color-interpolation-filters="sRGB">
<feFlood flood-opacity="0" result="BackgroundImageFix"/>
<feColorMatrix in="SourceAlpha" type="matrix" values="0 0 0 0 0 0 0 0 0 0 0 0 0 0 0 0 0 0 127 0" result="hardAlpha"/>
<feOffset dy="7.5"/>
<feGaussianBlur stdDeviation="3.75"/>
<feComposite in2="hardAlpha" operator="out"/>
<feColorMatrix type="matrix" values="0 0 0 0 0 0 0 0 0 0 0 0 0 0 0 0 0 0 0.25 0"/>
<feBlend mode="normal" in2="BackgroundImageFix" result="effect1_dropShadow_623_2965"/>
<feBlend mode="normal" in="SourceGraphic" in2="effect1_dropShadow_623_2965" result="shape"/>
</filter>
</defs>
</svg>
