<svg width="34" height="34" viewBox="0 0 34 34" fill="none" xmlns="http://www.w3.org/2000/svg">
<g clip-path="url(#clip0_503_3184)">
<path fill-rule="evenodd" clip-rule="evenodd" d="M8.72168 25.2783C13.2937 29.8503 20.7063 29.8503 25.2783 25.2783C29.8503 20.7063 29.8503 13.2937 25.2783 8.72168C20.7063 4.14969 13.2937 4.14969 8.72168 8.72168C4.14969 13.2937 4.14969 20.7063 8.72168 25.2783ZM9.60313 23.4105C9.33052 23.6831 8.90773 23.6628 8.66562 23.3625C8.66562 23.3625 8.8043 23.5439 8.66226 23.3581C5.51977 19.2479 5.82787 13.3453 9.58658 9.58658C13.6809 5.49226 20.3191 5.49226 24.4134 9.58658C28.5077 13.6809 28.5077 20.3191 24.4134 24.4134C20.6558 28.171 14.7555 28.4801 10.6455 25.3405C10.4585 25.1976 10.6366 25.3337 10.6366 25.3337C10.338 25.0889 10.3152 24.6714 10.5896 24.397L19.5238 15.4627C19.66 15.3266 19.7701 15.372 19.7698 15.563L19.7641 20.4419C19.7629 21.3729 21.1595 21.3717 21.1605 20.4405L21.1973 13.6517C21.2004 13.1699 20.8114 12.7829 20.326 12.7873L13.5596 12.8396C12.6284 12.8406 12.627 14.2369 13.5582 14.236L18.4371 14.2302C18.6286 14.23 18.6744 14.3392 18.5374 14.4762L9.60313 23.4105Z" fill="#525358"/>
</g>
<defs>
<clipPath id="clip0_503_3184">
<rect width="24" height="24" fill="white" transform="translate(0.0292969 17) rotate(-45)"/>
</clipPath>
</defs>
</svg>
