<svg width="24" height="23" viewBox="0 0 24 23" fill="none" xmlns="http://www.w3.org/2000/svg">
<path fill-rule="evenodd" clip-rule="evenodd" d="M17.2489 12.061C17.4479 12.0611 17.6389 11.9822 17.7797 11.8416C17.9205 11.7009 17.9997 11.5101 17.9999 11.3111C18 11.1121 17.9211 10.9212 17.7804 10.7803C17.6398 10.6395 17.449 10.5603 17.25 10.5602L8.55998 10.5612L11.4959 7.62531C11.6365 7.48465 11.7156 7.29389 11.7156 7.09498C11.7156 6.89606 11.6365 6.7053 11.4959 6.56465C11.3552 6.42399 11.1645 6.34498 10.9656 6.34498C10.7666 6.34498 10.5759 6.42399 10.4352 6.56465L6.21911 10.7808C6.07846 10.9214 5.99944 11.1122 5.99944 11.3111C5.99944 11.51 6.07846 11.7008 6.21911 11.8414L10.4352 16.0576C10.5759 16.1982 10.7666 16.2772 10.9656 16.2772C11.1645 16.2772 11.3552 16.1982 11.4959 16.0576C11.6365 15.9169 11.7156 15.7261 11.7156 15.5272C11.7156 15.3283 11.6365 15.1375 11.4959 14.9969L8.55998 12.061L17.2489 12.061Z" fill="#525358"/>
</svg>
