<svg width="24" height="23" viewBox="0 0 24 23" fill="none" xmlns="http://www.w3.org/2000/svg">
<path fill-rule="evenodd" clip-rule="evenodd" d="M6.75109 12.061C6.55206 12.0611 6.36114 11.9822 6.22031 11.8416C6.07948 11.7009 6.00028 11.5101 6.00014 11.3111C6 11.1121 6.07893 10.9212 6.21956 10.7803C6.36019 10.6395 6.551 10.5603 6.75003 10.5602L15.44 10.5612L12.5041 7.62531C12.3635 7.48465 12.2844 7.29389 12.2844 7.09498C12.2844 6.89606 12.3635 6.7053 12.5041 6.56465C12.6448 6.42399 12.8355 6.34498 13.0344 6.34498C13.2334 6.34498 13.4241 6.42399 13.5648 6.56465L17.7809 10.7808C17.9215 10.9214 18.0006 11.1122 18.0006 11.3111C18.0006 11.51 17.9215 11.7008 17.7809 11.8414L13.5648 16.0576C13.4241 16.1982 13.2334 16.2772 13.0344 16.2772C12.8355 16.2772 12.6448 16.1982 12.5041 16.0576C12.3635 15.9169 12.2844 15.7261 12.2844 15.5272C12.2844 15.3283 12.3635 15.1375 12.5041 14.9969L15.44 12.061L6.75109 12.061Z" fill="#525358"/>
</svg>
