<svg width="24" height="23" viewBox="0 0 24 23" fill="none" xmlns="http://www.w3.org/2000/svg">
<path fill-rule="evenodd" clip-rule="evenodd" d="M17.2489 10.939C17.4479 10.9389 17.6389 11.0178 17.7797 11.1584C17.9205 11.2991 17.9997 11.4899 17.9999 11.6889C18 11.8879 17.9211 12.0788 17.7804 12.2197C17.6398 12.3605 17.449 12.4397 17.25 12.4398L8.55998 12.4388L11.4959 15.3747C11.6365 15.5153 11.7156 15.7061 11.7156 15.905C11.7156 16.1039 11.6365 16.2947 11.4959 16.4354C11.3552 16.576 11.1645 16.655 10.9656 16.655C10.7666 16.655 10.5759 16.576 10.4352 16.4354L6.21911 12.2192C6.07846 12.0786 5.99944 11.8878 5.99944 11.6889C5.99944 11.49 6.07846 11.2992 6.21911 11.1586L10.4352 6.94245C10.5759 6.80179 10.7666 6.72278 10.9656 6.72278C11.1645 6.72278 11.3552 6.80179 11.4959 6.94245C11.6365 7.0831 11.7156 7.27386 11.7156 7.47277C11.7156 7.67169 11.6365 7.86245 11.4959 8.00311L8.55998 10.939L17.2489 10.939Z" fill="white"/>
</svg>
