<svg width="40" height="40" viewBox="0 0 40 40" fill="none" xmlns="http://www.w3.org/2000/svg">
<path fill-rule="evenodd" clip-rule="evenodd" d="M39.5127 20C39.5127 9.22372 30.7768 0.487816 20.0005 0.487816C9.22419 0.487816 0.488281 9.22372 0.488281 20C0.488281 30.7763 9.22419 39.5122 20.0005 39.5122C30.7768 39.5122 39.5127 30.7763 39.5127 20ZM36.2726 21.1625C36.9151 21.1625 37.3895 21.6846 37.3209 22.3239C37.3209 22.3239 37.3712 21.9467 37.3197 22.333C36.1793 30.8804 28.8598 37.4736 20.0005 37.4736C10.3501 37.4736 2.52687 29.6504 2.52687 20C2.52687 10.3496 10.3501 2.5264 20.0005 2.5264C28.8573 2.5264 36.175 9.1158 37.3187 17.6596C37.3707 18.0483 37.3211 17.6781 37.3211 17.6781C37.3846 18.3183 36.9194 18.8373 36.2726 18.8373L15.2144 18.8373C14.8935 18.8373 14.8173 18.654 15.0426 18.4293L20.7992 12.6861C21.8978 11.5904 20.2505 9.94594 19.1519 11.0422L11.1079 18.9994C10.5365 19.5636 10.5388 20.4781 11.116 21.045L19.1519 28.9576C20.2505 30.0539 21.8978 28.41 20.7992 27.3137L15.0426 21.5706C14.8166 21.3452 14.8914 21.1625 15.2144 21.1625L36.2726 21.1625Z" fill="#214098"/>
</svg>
