<svg width="40" height="40" viewBox="0 0 40 40" fill="none" xmlns="http://www.w3.org/2000/svg">
<path fill-rule="evenodd" clip-rule="evenodd" d="M39.5122 20C39.5122 9.22372 30.7763 0.487815 20 0.487815C9.2237 0.487815 0.487793 9.22372 0.487793 20C0.487793 30.7763 9.2237 39.5122 20 39.5122C30.7763 39.5122 39.5122 30.7763 39.5122 20ZM36.2721 21.1625C36.9146 21.1625 37.3891 21.6846 37.3204 22.3239C37.3204 22.3239 37.3707 21.9467 37.3192 22.333C36.1788 30.8804 28.8593 37.4736 20 37.4736C10.3496 37.4736 2.52638 29.6504 2.52638 20C2.52638 10.3496 10.3496 2.5264 20 2.5264C28.8568 2.5264 36.1745 9.1158 37.3182 17.6596C37.3702 18.0483 37.3207 17.6781 37.3207 17.6781C37.3841 18.3183 36.9189 18.8373 36.2721 18.8373L15.2139 18.8373C14.893 18.8373 14.8168 18.654 15.0421 18.4293L20.7987 12.6861C21.8973 11.5904 20.25 9.94594 19.1514 11.0422L11.1074 18.9994C10.536 19.5636 10.5383 20.4781 11.1155 21.045L19.1514 28.9576C20.25 30.0539 21.8973 28.41 20.7987 27.3137L15.0421 21.5705C14.8161 21.3452 14.8909 21.1625 15.2139 21.1625L36.2721 21.1625Z" fill="#CACACA"/>
</svg>
