<svg width="40" height="40" viewBox="0 0 40 40" fill="none" xmlns="http://www.w3.org/2000/svg">
<path fill-rule="evenodd" clip-rule="evenodd" d="M0.487328 20C0.487328 30.7763 9.22323 39.5122 19.9995 39.5122C30.7758 39.5122 39.5117 30.7763 39.5117 20C39.5117 9.2237 30.7758 0.487793 19.9995 0.487793C9.22323 0.487793 0.487328 9.2237 0.487328 20ZM3.72742 18.8375C3.08486 18.8375 2.61046 18.3154 2.6791 17.6761C2.6791 17.6761 2.62876 18.0533 2.68031 17.667C3.82074 9.1196 11.1402 2.52638 19.9995 2.52638C29.6499 2.52638 37.4731 10.3496 37.4731 20C37.4731 29.6504 29.6499 37.4736 19.9995 37.4736C11.1427 37.4736 3.82498 30.8842 2.6813 22.3404C2.62927 21.9517 2.67886 22.3219 2.67886 22.3219C2.61541 21.6817 3.08056 21.1627 3.72742 21.1627H24.7856C25.1065 21.1627 25.1827 21.346 24.9574 21.5707L19.2008 27.3139C18.1022 28.4096 19.7495 30.0541 20.8481 28.9578L28.8921 21.0006C29.4635 20.4364 29.4612 19.5219 28.884 18.955L20.8481 11.0424C19.7495 9.9461 18.1022 11.59 19.2008 12.6863L24.9574 18.4294C25.1834 18.6548 25.1086 18.8375 24.7856 18.8375H3.72742Z" fill="#214098"/>
</svg>
