<svg width="40" height="40" viewBox="0 0 40 40" fill="none" xmlns="http://www.w3.org/2000/svg">
<path fill-rule="evenodd" clip-rule="evenodd" d="M0.487816 20C0.487816 30.7763 9.22372 39.5122 20 39.5122C30.7763 39.5122 39.5122 30.7763 39.5122 20C39.5122 9.2237 30.7763 0.487793 20 0.487793C9.22372 0.487793 0.487816 9.2237 0.487816 20ZM3.72791 18.8375C3.08535 18.8375 2.61095 18.3154 2.67959 17.6761C2.67959 17.6761 2.62925 18.0533 2.6808 17.667C3.82123 9.1196 11.1407 2.52638 20 2.52638C29.6504 2.52638 37.4736 10.3496 37.4736 20C37.4736 29.6504 29.6504 37.4736 20 37.4736C11.1432 37.4736 3.82547 30.8842 2.68179 22.3404C2.62976 21.9517 2.67934 22.3219 2.67934 22.3219C2.6159 21.6817 3.08105 21.1627 3.72791 21.1627H24.7861C25.107 21.1627 25.1832 21.346 24.9579 21.5707L19.2013 27.3139C18.1027 28.4096 19.75 30.0541 20.8486 28.9578L28.8926 21.0006C29.464 20.4364 29.4617 19.5219 28.8845 18.955L20.8486 11.0424C19.75 9.9461 18.1027 11.59 19.2013 12.6863L24.9579 18.4294C25.1839 18.6548 25.1091 18.8375 24.7861 18.8375H3.72791Z" fill="#F16622"/>
</svg>
