<svg width="48" height="45" viewBox="0 0 48 45" fill="none" xmlns="http://www.w3.org/2000/svg">
<g clip-path="url(#clip0_981_4209)">
<path d="M13.3182 37.016C13.3182 36.2461 13.0181 35.5076 12.4839 34.9632C11.9497 34.4187 11.2252 34.1128 10.4697 34.1128H9.04545C9.6433 33.6558 10.0849 33.0187 10.3077 32.2917C10.5306 31.5646 10.5233 30.7846 10.287 30.062C10.0507 29.3394 9.59726 28.7109 8.99101 28.2656C8.38477 27.8202 7.6564 27.5806 6.90909 27.5806C6.16178 27.5806 5.43342 27.8202 4.82717 28.2656C4.22092 28.7109 3.76752 29.3394 3.5312 30.062C3.29488 30.7846 3.28762 31.5646 3.51044 32.2917C3.73327 33.0187 4.17488 33.6558 4.77273 34.1128H3.34848C2.59302 34.1128 1.8685 34.4187 1.3343 34.9632C0.800107 35.5076 0.5 36.2461 0.5 37.016V39.9193H13.3182V37.016ZM6.90909 29.0322C7.33162 29.0322 7.74467 29.1599 8.09599 29.3991C8.44731 29.6384 8.72114 29.9785 8.88283 30.3763C9.04453 30.7742 9.08684 31.212 9.00441 31.6344C8.92197 32.0568 8.7185 32.4447 8.41973 32.7493C8.12095 33.0538 7.74029 33.2612 7.32588 33.3452C6.91146 33.4292 6.48191 33.3861 6.09154 33.2213C5.70117 33.0565 5.36752 32.7774 5.13277 32.4193C4.89802 32.0612 4.77273 31.6403 4.77273 31.2096C4.77273 30.6321 4.99781 30.0783 5.39845 29.6699C5.7991 29.2616 6.34249 29.0322 6.90909 29.0322ZM11.8939 38.4677H1.92424V37.016C1.92424 36.6311 2.0743 36.2618 2.34139 35.9896C2.60849 35.7174 2.97075 35.5644 3.34848 35.5644H10.4697C10.8474 35.5644 11.2097 35.7174 11.4768 35.9896C11.7439 36.2618 11.8939 36.6311 11.8939 37.016V38.4677Z" fill="white"/>
<path d="M44.6533 31.2096C44.6533 30.591 44.4982 29.9827 44.2026 29.4424C43.907 28.9021 43.4809 28.4478 42.9646 28.1226C42.4483 27.7973 41.859 27.612 41.2527 27.5842C40.6464 27.5564 40.0432 27.687 39.5003 27.9637C38.9575 28.2403 38.493 28.6538 38.1511 29.1649C37.8091 29.6759 37.601 30.2676 37.5465 30.8837C37.492 31.4998 37.5929 32.1199 37.8396 32.685C38.0864 33.2502 38.4708 33.7417 38.9563 34.1128H37.5321C36.7766 34.1128 36.0521 34.4187 35.5179 34.9632C34.9837 35.5076 34.6836 36.2461 34.6836 37.016V39.9193H47.5018V37.016C47.5018 36.2461 47.2017 35.5076 46.6675 34.9632C46.1333 34.4187 45.4088 34.1128 44.6533 34.1128H43.2291C43.6713 33.7748 44.0302 33.3365 44.2774 32.8326C44.5246 32.3286 44.6533 31.773 44.6533 31.2096ZM46.0775 37.016V38.4677H36.1078V37.016C36.1078 36.6311 36.2579 36.2618 36.525 35.9896C36.7921 35.7174 37.1543 35.5644 37.5321 35.5644H44.6533C45.031 35.5644 45.3933 35.7174 45.6604 35.9896C45.9275 36.2618 46.0775 36.6311 46.0775 37.016ZM41.0927 33.387C40.6702 33.387 40.2571 33.2593 39.9058 33.0201C39.5545 32.7808 39.2806 32.4407 39.1189 32.0429C38.9572 31.645 38.9149 31.2072 38.9974 30.7848C39.0798 30.3624 39.2833 29.9744 39.5821 29.6699C39.8808 29.3654 40.2615 29.158 40.6759 29.074C41.0903 28.99 41.5199 29.0331 41.9102 29.1979C42.3006 29.3627 42.6343 29.6418 42.869 29.9999C43.1038 30.358 43.2291 30.7789 43.2291 31.2096C43.2291 31.7871 43.004 32.3409 42.6033 32.7493C42.2027 33.1576 41.6593 33.387 41.0927 33.387Z" fill="white"/>
<path d="M30.408 9.43548C30.408 8.6655 30.1079 7.92705 29.5737 7.38259C29.0395 6.83813 28.315 6.53226 27.5595 6.53226H26.1353C26.7331 6.07526 27.1748 5.43812 27.3976 4.71109C27.6204 3.98407 27.6131 3.20402 27.3768 2.48143C27.1405 1.75885 26.6871 1.13036 26.0809 0.685008C25.4746 0.239652 24.7462 0 23.9989 0C23.2516 0 22.5233 0.239652 21.917 0.685008C21.3108 1.13036 20.8574 1.75885 20.621 2.48143C20.3847 3.20402 20.3775 3.98407 20.6003 4.71109C20.8231 5.43812 21.2647 6.07526 21.8626 6.53226H20.4383C19.6829 6.53226 18.9583 6.83813 18.4241 7.38259C17.89 7.92705 17.5898 8.6655 17.5898 9.43548V12.3387H30.408V9.43548ZM23.9989 1.45161C24.4215 1.45161 24.8345 1.57932 25.1858 1.81857C25.5372 2.05783 25.811 2.3979 25.9727 2.79577C26.1344 3.19364 26.1767 3.63145 26.0942 4.05383C26.0118 4.4762 25.8083 4.86418 25.5096 5.1687C25.2108 5.47322 24.8301 5.6806 24.4157 5.76461C24.0013 5.84863 23.5718 5.80551 23.1814 5.64071C22.791 5.4759 22.4574 5.19682 22.2226 4.83874C21.9879 4.48067 21.8626 4.05968 21.8626 3.62903C21.8626 3.05154 22.0877 2.49771 22.4883 2.08936C22.8889 1.68102 23.4323 1.45161 23.9989 1.45161ZM28.9838 10.8871H19.0141V9.43548C19.0141 9.05049 19.1641 8.68127 19.4312 8.40904C19.6983 8.13681 20.0606 7.98387 20.4383 7.98387H27.5595C27.9373 7.98387 28.2995 8.13681 28.5666 8.40904C28.8337 8.68127 28.9838 9.05049 28.9838 9.43548V10.8871Z" fill="white"/>
<path d="M5.48674 24.6775C5.49404 21.3671 6.35267 18.1165 7.97703 15.2498C9.60139 12.3831 11.9347 10.0005 14.7443 8.33963L14.0322 7.08398C11.0068 8.87273 8.49419 11.4385 6.74491 14.5254C4.99564 17.6124 4.07077 21.1127 4.0625 24.6775V24.7574H5.48674V24.6775Z" fill="white"/>
<path d="M42.5154 24.6773H43.9396C43.9337 21.1091 43.01 17.6048 41.2606 14.514C39.5113 11.4231 36.9975 8.85373 33.9699 7.06201L33.2578 8.31766C36.0701 9.98098 38.405 12.3671 40.0295 15.2378C41.6539 18.1085 42.5111 21.3634 42.5154 24.6773Z" fill="white"/>
<path d="M24.0019 45.0001C27.5214 45.0005 30.9783 44.0514 34.0214 42.2493L33.3093 40.9937C30.5003 42.6599 27.3104 43.5431 24.0603 43.5546C20.8102 43.566 17.6144 42.7053 14.7942 41.059L14.082 42.3146C17.1021 44.0767 20.522 45.0025 24.0019 45.0001Z" fill="white"/>
<path d="M23.9993 27.5808C24.8444 27.5808 25.6704 27.3254 26.3731 26.8469C27.0757 26.3683 27.6234 25.6882 27.9468 24.8925C28.2702 24.0967 28.3548 23.2211 28.1899 22.3763C28.0251 21.5316 27.6181 20.7556 27.0206 20.1466C26.423 19.5376 25.6617 19.1228 24.8329 18.9548C24.004 18.7867 23.1449 18.873 22.3642 19.2026C21.5834 19.5322 20.9161 20.0904 20.4466 20.8065C19.9772 21.5227 19.7266 22.3646 19.7266 23.2259C19.7266 24.3809 20.1767 25.4886 20.978 26.3053C21.7793 27.122 22.8661 27.5808 23.9993 27.5808ZM23.9993 20.3227C24.5627 20.3227 25.1134 20.493 25.5818 20.812C26.0503 21.131 26.4153 21.5844 26.6309 22.1149C26.8465 22.6454 26.9029 23.2292 26.793 23.7923C26.6831 24.3555 26.4118 24.8728 26.0135 25.2788C25.6151 25.6848 25.1076 25.9614 24.555 26.0734C24.0024 26.1854 23.4297 26.1279 22.9092 25.9082C22.3887 25.6884 21.9439 25.3163 21.6309 24.8389C21.3179 24.3614 21.1508 23.8001 21.1508 23.2259C21.1508 22.456 21.4509 21.7175 21.9851 21.173C22.5193 20.6286 23.2438 20.3227 23.9993 20.3227Z" fill="white"/>
<path d="M18.4723 27.305L19.2628 29.7582L16.6208 36.2179L20.039 35.2671L22.0614 37.9235L24.0696 33.213L26.0849 37.9308L28.0717 35.2308L31.5184 36.1235L28.734 29.6566L29.4888 27.2832L31.6252 25.7227L30.792 23.2259L31.5967 20.7074L29.4603 19.1469L28.6556 16.6284H26.0849L23.9485 15.0679L21.8122 16.6284H19.277L18.4723 19.1469L16.3359 20.7074L17.1762 23.2259L16.3715 25.7445L18.4723 27.305ZM21.7125 35.1219L20.5873 33.6703L19.0562 34.0985L20.7867 29.8598H21.862L22.9444 30.6582L23.2862 31.413L21.7125 35.1219ZM27.502 33.605L26.4125 35.0566L24.6321 30.8759L26.0564 29.7945H27.21L29.0117 33.9751L27.502 33.605ZM18.045 21.2663L19.7256 20.0469L20.3523 18.08H22.3747L23.9984 16.8679L25.6362 18.08H27.6658L28.2711 20.0469L29.9161 21.259L29.2965 23.2259L29.9232 25.1929L28.2711 26.405L27.6444 28.3719H25.622L23.9984 29.584L22.3534 28.3719H20.3167L19.7256 26.405L18.0806 25.1929L18.6717 23.2259L18.045 21.2663Z" fill="white"/>
</g>
<defs>
<clipPath id="clip0_981_4209">
<rect width="47" height="45" fill="white" transform="translate(0.5)"/>
</clipPath>
</defs>
</svg>
