<svg width="56" height="56" viewBox="0 0 56 56" fill="none" xmlns="http://www.w3.org/2000/svg">
<path d="M28.0001 55.5821C13.1444 55.5821 0.417969 42.8557 0.417969 28.0001C0.417969 13.1444 13.1444 0.417969 28.0001 0.417969C42.8557 0.417969 55.5821 13.1444 55.5821 28.0001C55.5821 42.8557 42.8557 55.5821 28.0001 55.5821ZM28.0001 2.08961C13.6356 2.08961 2.08961 13.6356 2.08961 28.0001C2.08961 42.3646 13.6356 53.9105 28.0001 53.9105C42.3646 53.9105 53.9105 42.3646 53.9105 28.0001C53.9105 13.6356 42.3646 2.08961 28.0001 2.08961Z" fill="white"/>
<g clip-path="url(#clip0_501_3002)">
<path d="M21.9965 33.2598H14.2215C13.8911 33.2598 13.623 32.9948 13.623 32.6682C13.623 32.3417 13.8911 32.0767 14.2215 32.0767H21.9965C22.3268 32.0767 22.5949 32.3417 22.5949 32.6682C22.5949 32.9948 22.3271 33.2598 21.9965 33.2598Z" fill="white"/>
<path d="M21.9965 30.2671H14.2215C13.8911 30.2671 13.623 30.0021 13.623 29.6755C13.623 29.349 13.8911 29.084 14.2215 29.084H21.9965C22.3268 29.084 22.5949 29.349 22.5949 29.6755C22.5949 30.0021 22.3271 30.2671 21.9965 30.2671Z" fill="white"/>
<path d="M24.1007 36.1265H21.1394C20.8091 36.1265 20.541 35.8615 20.541 35.5349C20.541 35.2084 20.8091 34.9434 21.1394 34.9434H24.1007C24.4311 34.9434 24.6992 35.2084 24.6992 35.5349C24.6992 35.8615 24.4311 36.1265 24.1007 36.1265Z" fill="white"/>
<path d="M19.8951 27.3799H14.2215C13.8911 27.3799 13.623 27.1149 13.623 26.7883C13.623 26.4618 13.8911 26.1968 14.2215 26.1968H19.8951C20.2255 26.1968 20.4936 26.4618 20.4936 26.7883C20.4936 27.1149 20.2258 27.3799 19.8951 27.3799Z" fill="white"/>
<path d="M17.3677 24.4684H14.325C13.9947 24.4684 13.7266 24.2034 13.7266 23.8768V20.9128C13.7266 20.5863 13.9947 20.3213 14.325 20.3213H17.3677C17.698 20.3213 17.9661 20.5863 17.9661 20.9128V23.8768C17.9661 24.2037 17.6983 24.4684 17.3677 24.4684ZM14.9234 23.2853H16.7692V21.5044H14.9234V23.2853Z" fill="white"/>
<path d="M23.5985 29.1788C23.4614 29.1788 23.3277 29.1324 23.2199 29.0454C23.0856 28.9369 23.0054 28.776 23.0003 28.6044L22.9456 26.7266C22.9414 26.5858 22.9881 26.4485 23.0772 26.3388L27.8018 20.53C28.007 20.278 28.379 20.2351 28.6369 20.4348L30.6449 21.987C30.7715 22.0849 30.8529 22.2287 30.8708 22.3863C30.8888 22.544 30.8421 22.7022 30.7409 22.8255L25.9817 28.6299C25.8904 28.7408 25.7618 28.8156 25.6193 28.8402L23.7008 29.17C23.6667 29.1759 23.6323 29.1788 23.5985 29.1788ZM25.5167 28.2575H25.5197H25.5167ZM24.1481 26.9102L24.1765 27.8875L25.193 27.7127L29.4277 22.5484L28.3643 21.7264L24.1481 26.9102Z" fill="white"/>
<path d="M37.0912 42.5489H33.373C33.0151 42.5489 32.7246 42.2839 32.7246 41.9573V14.595C32.7246 14.2684 33.0151 14.0034 33.373 14.0034H37.0912C37.4491 14.0034 37.7395 14.2684 37.7395 14.595C37.7395 14.9215 37.4491 15.1865 37.0912 15.1865H34.0214V41.3658H37.0912C37.4491 41.3658 37.7395 41.6308 37.7395 41.9573C37.7395 42.2839 37.4494 42.5489 37.0912 42.5489Z" fill="white"/>
<path d="M36.7542 28.7455H30.4031C30.0728 28.7455 29.8047 28.446 29.8047 28.0769C29.8047 27.7078 30.0728 27.4082 30.4031 27.4082H36.7542C37.0845 27.4082 37.3526 27.7078 37.3526 28.0769C37.3526 28.446 37.0848 28.7455 36.7542 28.7455Z" fill="white"/>
<path d="M46.6148 17.248H39.8406C39.5103 17.248 39.2422 16.9829 39.2422 16.6564V12.0281C39.2422 11.7015 39.5103 11.4365 39.8406 11.4365H46.6148C46.9451 11.4365 47.2132 11.7015 47.2132 12.0281V16.6564C47.2132 16.9829 46.9451 17.248 46.6148 17.248ZM40.439 16.0648H46.0164V12.6196H40.439V16.0648Z" fill="white"/>
<path d="M46.6148 31.1923H39.8406C39.5103 31.1923 39.2422 30.9273 39.2422 30.6007V25.9724C39.2422 25.6459 39.5103 25.3809 39.8406 25.3809H46.6148C46.9451 25.3809 47.2132 25.6459 47.2132 25.9724V30.6007C47.2132 30.9273 46.9451 31.1923 46.6148 31.1923ZM40.439 30.0092H46.0164V26.564H40.439V30.0092Z" fill="white"/>
<path d="M46.6148 44.5634H39.8406C39.5103 44.5634 39.2422 44.2984 39.2422 43.9718V39.3435C39.2422 39.017 39.5103 38.752 39.8406 38.752H46.6148C46.9451 38.752 47.2132 39.017 47.2132 39.3435V43.9718C47.2132 44.2984 46.9451 44.5634 46.6148 44.5634ZM40.439 43.3803H46.0164V39.9351H40.439V43.3803Z" fill="white"/>
<path d="M26.7107 39.1193H10.7098C10.3794 39.1193 10.1113 38.8543 10.1113 38.5278V18.0662C10.1113 17.9088 10.1748 17.758 10.2873 17.6471C10.3998 17.5361 10.5455 17.4616 10.7118 17.4746C12.8692 17.4829 15.7874 17.4912 18.7056 17.4995C21.6241 17.5077 24.5426 17.516 26.7005 17.5243C27.0297 17.5255 27.296 17.7893 27.2966 18.1147C27.2978 18.6542 27.2993 20.4773 27.3008 22.8264C27.3008 22.9616 27.2544 23.0923 27.1688 23.1976L24.1489 26.9105L24.1773 27.8878L25.1937 27.7129L26.2398 26.4373C26.3992 26.2423 26.6655 26.1684 26.9043 26.2521C27.1431 26.3358 27.3029 26.5588 27.3032 26.8093L27.3091 38.5275C27.3091 38.6845 27.2463 38.8351 27.1341 38.946C27.0219 39.0569 26.8696 39.1193 26.7107 39.1193ZM11.3082 37.9362H26.112L26.1072 28.4778L25.9824 28.6302C25.8912 28.7411 25.7625 28.8159 25.6201 28.8405L23.7015 29.1702C23.5304 29.1998 23.3551 29.1543 23.2204 29.0457C23.0861 28.9372 23.0059 28.7763 23.0008 28.6047L22.946 26.7268C22.9418 26.586 22.9885 26.4488 23.0777 26.3391L26.1036 22.6188C26.1024 20.9195 26.1015 19.5155 26.1003 18.7056C24.0172 18.698 21.3596 18.6906 18.7017 18.6829C16.0465 18.6752 13.3907 18.6675 11.3082 18.6598V37.9362ZM25.5175 28.2578H25.5204H25.5175Z" fill="white"/>
</g>
<defs>
<clipPath id="clip0_501_3002">
<rect width="37.1023" height="33.1271" fill="white" transform="translate(10.1113 11.4365)"/>
</clipPath>
</defs>
</svg>
