<svg width="58" height="55" viewBox="0 0 58 55" fill="none" xmlns="http://www.w3.org/2000/svg">
<path d="M15.961 2.2339L16.2939 0.316594C14.9586 0.079353 13.6022 -0.0138417 12.2474 0.0385746C9.2392 0.178619 6.81795 1.15613 5.05221 2.9447C3.77678 4.23442 2.91098 5.89159 2.47922 7.86985C2.47826 7.87399 2.47742 7.87812 2.47658 7.88202C2.1733 9.3623 2.08605 10.8796 2.21759 12.3855L4.13387 12.2141C4.01908 10.9001 4.09483 9.57604 4.3587 8.28414C4.71063 6.67698 5.40137 5.34382 6.41228 4.32142C7.82851 2.88727 9.82149 2.10091 12.3278 1.98423C13.5441 1.93759 14.762 2.02128 15.961 2.2339Z" fill="white"/>
<path d="M8.1791 24.4119C7.59922 23.3418 7.07019 22.2667 6.6067 21.2163L4.84961 22.0106C5.33451 23.109 5.88698 24.2319 6.49175 25.3483L8.1791 24.4119Z" fill="white"/>
<path d="M2.75586 15.8383C2.95545 16.7088 3.2077 17.6114 3.50587 18.5209L5.33185 17.908C5.05231 17.0552 4.81617 16.2108 4.62993 15.3984L2.75586 15.8383Z" fill="white"/>
<path d="M9.13477 29.7107C9.73593 30.6074 10.3804 31.5148 11.0508 32.4069C11.1279 32.5096 11.2054 32.6122 11.2832 32.7146L12.8079 31.5273C12.7325 31.4284 12.6575 31.329 12.5827 31.2292C11.9326 30.3643 11.3082 29.4858 10.7271 28.6182L9.13477 29.7107Z" fill="white"/>
<path d="M16.7984 36.2732C16.3183 35.7538 15.8435 35.2238 15.3874 34.6982C15.2757 34.5695 15.1647 34.4406 15.0544 34.3115L13.5996 35.5848C13.7129 35.7174 13.827 35.85 13.9419 35.9826C14.4114 36.5236 14.8999 37.0688 15.3937 37.6032C15.615 37.8426 15.8388 38.0812 16.0652 38.3191L17.4507 36.9692C17.2308 36.7378 17.0134 36.5058 16.7984 36.2732Z" fill="white"/>
<path d="M53.2199 32.5596L51.4583 33.3418C52.5539 35.8679 53.2875 38.2761 53.639 40.4993C54.2979 44.6658 53.5757 47.9513 51.5505 50.0007C50.5484 51.0146 49.2443 51.7104 47.6748 52.0691C46.4043 52.3583 44.9626 52.4277 43.3901 52.2749C43.0024 52.2373 42.6023 52.1856 42.201 52.1213L41.9004 54.0437C42.3406 54.1143 42.78 54.171 43.2066 54.2125C43.8087 54.2709 44.3953 54.3001 44.9662 54.3C46.019 54.3065 47.0693 54.1951 48.0979 53.9679C50.0283 53.5275 51.6477 52.6561 52.9111 51.3777C55.3907 48.8683 56.2994 45.0004 55.5389 40.1919C55.1614 37.8053 54.3813 35.2374 53.2199 32.5596Z" fill="white"/>
<path d="M51.058 28.228L49.3867 29.1929C49.8316 29.9816 50.2506 30.7762 50.6325 31.5547L52.3555 30.689C51.9577 29.8768 51.521 29.0487 51.058 28.228Z" fill="white"/>
<path d="M49.0102 24.887C48.3509 23.8973 47.6558 22.9131 46.9436 21.9619L45.4102 23.1375C46.101 24.0603 46.7755 25.0151 47.415 25.9751L49.0102 24.887Z" fill="white"/>
<path d="M42.2001 16.3218L40.8086 17.666C41.6229 18.5291 42.4231 19.4273 43.1869 20.3354L44.6518 19.0735C43.8644 18.1372 43.0394 17.2116 42.2001 16.3218Z" fill="white"/>
<path d="M39.7419 48.0334C39.7076 47.9101 39.6495 47.7949 39.571 47.6944C39.4925 47.5938 39.3952 47.51 39.2846 47.4476C39.174 47.3852 39.0524 47.3455 38.9266 47.3308C38.8008 47.3161 38.6734 47.3267 38.5517 47.3619C38.43 47.3971 38.3163 47.4563 38.2173 47.5361C38.1182 47.6159 38.0357 47.7147 37.9744 47.8268C37.9132 47.9389 37.8744 48.0622 37.8603 48.1895C37.8462 48.3168 37.8571 48.4457 37.8924 48.5688L38.6548 51.2651C36.4764 50.5621 34.3661 49.6587 32.3506 48.5661C29.5277 47.0398 26.8432 45.2646 24.3283 43.2612C22.4623 41.7821 20.6771 40.2015 18.9806 38.5264L17.6367 39.9204C19.3827 41.6443 21.2198 43.2709 23.1401 44.7932C25.7447 46.8677 28.5248 48.7058 31.4483 50.2863C33.1218 51.1874 34.8547 51.9708 36.6346 52.6309L35.0608 53.0867C34.938 53.1207 34.8232 53.179 34.7229 53.2582C34.6226 53.3374 34.5388 53.436 34.4764 53.5482C34.414 53.6604 34.3742 53.7841 34.3593 53.912C34.3445 54.0398 34.3549 54.1694 34.3898 54.2933C34.4248 54.4171 34.4838 54.5326 34.5632 54.6332C34.6426 54.7338 34.741 54.8174 34.8526 54.8793C34.9642 54.9412 35.0869 54.98 35.2134 54.9935C35.3399 55.0071 35.4679 54.9951 35.5898 54.9582L40.3122 53.5908C40.5574 53.5197 40.7648 53.353 40.8885 53.1273C41.0123 52.9016 41.0425 52.6354 40.9723 52.3872L39.7419 48.0334Z" fill="white"/>
<path d="M24.9955 0.770017C24.9691 0.644959 24.9186 0.526392 24.8469 0.42109C24.7752 0.315788 24.6837 0.225815 24.5776 0.156313C24.4716 0.0868107 24.353 0.0391416 24.2287 0.0160295C24.1044 -0.00708268 23.9768 -0.00518486 23.8533 0.0216145L19.0499 1.06057C18.8004 1.11453 18.5823 1.26656 18.4437 1.48321C18.305 1.69987 18.257 1.9634 18.3103 2.21584L19.2462 6.64335C19.3014 6.89385 19.4522 7.11214 19.6656 7.25072C19.8791 7.3893 20.138 7.43695 20.386 7.38331C20.634 7.32966 20.8511 7.17907 20.9899 6.96429C21.1288 6.74951 21.1782 6.48793 21.1274 6.23648L20.5453 3.48062C22.2158 4.08414 23.8413 4.8085 25.4091 5.64808C28.1956 7.13658 30.8479 8.86928 33.3356 10.8263C34.5091 11.7426 35.6907 12.7365 36.8472 13.7799C37.4889 14.3598 38.1349 14.967 38.7671 15.585C39.0451 15.8567 39.3252 16.1353 39.5996 16.4131L40.9601 15.0366C40.6777 14.7509 40.3897 14.4648 40.1038 14.1849C39.4534 13.5493 38.7889 12.9245 38.128 12.3272C36.9377 11.253 35.7202 10.2294 34.5136 9.28728C33.3557 8.37608 32.1571 7.51172 30.9276 6.69348C31.6183 6.30085 32.3102 5.92902 32.9879 5.58822L32.1328 3.8449C31.3044 4.26114 30.4577 4.71936 29.6163 5.20763L30.1814 6.20533C28.9191 5.39419 27.6282 4.63492 26.3086 3.92752C25.1513 3.30837 23.9639 2.74882 22.7509 2.251L24.2559 1.92541C24.3795 1.89869 24.4966 1.84761 24.6006 1.77509C24.7046 1.70256 24.7935 1.61001 24.8622 1.50272C24.9309 1.39543 24.978 1.2755 25.0009 1.14979C25.0237 1.02407 25.0219 0.895022 24.9955 0.770017Z" fill="white"/>
<path d="M9.99319 52.4143C8.40611 52.059 7.08812 51.3604 6.07744 50.3377C4.66037 48.9038 3.88318 46.8867 3.76776 44.3505C3.72176 43.1197 3.80463 41.8874 4.01496 40.6742L2.12057 40.3374C1.88638 41.6887 1.79433 43.0612 1.84595 44.4321C1.98422 47.4764 2.95017 49.9265 4.7176 51.7143C5.99315 53.005 7.63073 53.8801 9.58512 54.3167L9.59714 54.3192C10.6184 54.5336 11.6587 54.6417 12.7018 54.6417C13.1503 54.6417 13.5987 54.6217 14.0471 54.5817L13.878 52.6425C12.579 52.7586 11.2702 52.6817 9.99319 52.4143Z" fill="white"/>
<path d="M17.0254 52.141L17.4597 54.0376C18.3196 53.836 19.2115 53.5806 20.1108 53.2786L19.5051 51.4307C18.6619 51.7139 17.8277 51.9529 17.0254 52.141Z" fill="white"/>
<path d="M22.7734 50.1396L23.5583 51.9175C24.6441 51.4266 25.7538 50.8675 26.8564 50.2558L25.9316 48.5488C24.8743 49.1348 23.8118 49.6702 22.7734 50.1396Z" fill="white"/>
<path d="M32.6678 44.0921C31.846 44.7248 31.0116 45.3332 30.1875 45.9008L31.2696 47.5101C32.1216 46.9232 32.9836 46.2946 33.8318 45.6419C33.933 45.564 34.0341 45.4858 34.1351 45.4072L32.9622 43.8643C32.8646 43.9405 32.7665 44.0165 32.6678 44.0921Z" fill="white"/>
<path d="M37.3661 42.7169C37.9019 42.2408 38.4405 41.7466 38.9673 41.2481C39.204 41.024 39.4399 40.7976 39.675 40.5686L38.3412 39.166C38.1126 39.3887 37.8833 39.6089 37.6534 39.8266C37.141 40.3116 36.6174 40.7919 36.0968 41.2546C35.9696 41.3676 35.8423 41.4798 35.7148 41.5913L36.973 43.0635C37.1041 42.9487 37.2352 42.8331 37.3661 42.7169Z" fill="white"/>
<path d="M53.3125 14.1204L55.2122 14.4245C55.2818 13.9787 55.3379 13.5341 55.3787 13.1029C55.5492 11.306 55.4679 9.64077 55.1372 8.15309C54.7019 6.19953 53.8407 4.56086 52.5774 3.28221C50.0977 0.77322 46.2756 -0.146497 41.5239 0.622955C39.1657 1.00488 36.6281 1.79441 33.9824 2.96964L34.7556 4.75225C37.2514 3.64358 39.6311 2.90114 41.8282 2.54537C45.9454 1.87885 49.1923 2.60949 51.2175 4.6588C52.2195 5.67294 52.907 6.99271 53.2614 8.58101C53.5472 9.86672 53.6158 11.3256 53.4647 12.917C53.4271 13.3088 53.376 13.7132 53.3125 14.1204Z" fill="white"/>
<path d="M24.6715 10.8717C25.5837 10.1724 26.527 9.48978 27.4755 8.84286L26.4004 7.22852C25.4226 7.89552 24.4501 8.59915 23.5098 9.31993L24.6715 10.8717Z" fill="white"/>
<path d="M19.2657 15.5299C20.1188 14.7058 21.0062 13.8961 21.9036 13.1231L20.6566 11.6406C19.7315 12.4376 18.817 13.2724 17.9375 14.1218L19.2657 15.5299Z" fill="white"/>
<path d="M55.0099 15.7993C54.9756 15.6716 54.9158 15.5523 54.8344 15.4487C54.7529 15.3452 54.6514 15.2595 54.5362 15.197C54.4209 15.1345 54.2942 15.0964 54.1639 15.0851C54.0336 15.0738 53.9023 15.0895 53.7782 15.1313L49.3562 16.6203C49.1165 16.7037 48.919 16.8794 48.8066 17.1093C48.6942 17.3392 48.6761 17.6048 48.7561 17.8481C48.8361 18.0915 49.0078 18.2931 49.2339 18.4091C49.46 18.525 49.7222 18.546 49.9635 18.4674L52.4978 17.6141C51.7998 19.8521 50.8972 22.0194 49.8016 24.0878C48.2934 26.9445 46.5392 29.6611 44.5595 32.2061C43.098 34.0945 41.5361 35.9011 39.8809 37.6179L41.2578 38.9778C42.9613 37.211 44.5688 35.3518 46.073 33.4084C48.123 30.7728 49.9394 27.9594 51.501 25.0009C52.4622 23.1756 53.2861 21.2796 53.9658 19.329L54.505 21.333C54.5741 21.5797 54.7366 21.7888 54.9571 21.915C55.1777 22.0412 55.4385 22.0742 55.683 22.0069C55.9274 21.9396 56.1358 21.7774 56.2628 21.5555C56.3898 21.3337 56.4251 21.0701 56.3612 20.822L55.0099 15.7993Z" fill="white"/>
<path d="M3.79589 38.3162C3.86374 38.3161 3.93141 38.3088 3.99776 38.2944L8.37304 37.3482C8.62251 37.2942 8.84059 37.1422 8.97929 36.9255C9.118 36.7089 9.16597 36.4453 9.11265 36.1928C9.05934 35.9404 8.9091 35.7197 8.69499 35.5793C8.48089 35.439 8.22045 35.3904 7.97098 35.4444L5.24758 36.0334C5.844 34.3429 6.55979 32.698 7.38941 31.1114C8.8604 28.2916 10.5727 25.6076 12.5065 23.0902C13.4114 21.9034 14.3942 20.7075 15.4253 19.5364C15.9983 18.8868 16.5984 18.2332 17.2088 17.5937C17.4747 17.3153 17.7499 17.0318 18.0273 16.7512L16.6671 15.3745C16.3819 15.6631 16.0987 15.9546 15.8254 16.2411C15.1976 16.8988 14.5801 17.5714 13.9898 18.2405C12.9276 19.4463 11.9162 20.6777 10.9858 21.8981C8.98395 24.5042 7.21147 27.2828 5.68871 30.2019C5.07711 31.3727 4.52438 32.5741 4.03262 33.8013L3.71088 32.2784C3.68544 32.1524 3.63559 32.0328 3.56422 31.9265C3.49285 31.8201 3.40137 31.7291 3.29506 31.6587C3.18875 31.5884 3.06972 31.54 2.94484 31.5164C2.81996 31.4929 2.6917 31.4946 2.56747 31.5214C2.44324 31.5483 2.3255 31.5998 2.22105 31.673C2.1166 31.7461 2.0275 31.8395 1.95891 31.9477C1.89031 32.0559 1.84358 32.1768 1.82141 32.3034C1.79923 32.43 1.80206 32.5598 1.82971 32.6852L2.85626 37.546C2.9022 37.7638 3.02053 37.959 3.19153 38.0992C3.36252 38.2394 3.57584 38.316 3.79589 38.3162Z" fill="white"/>
<path d="M37.2574 29.2003C37.2555 28.1322 37.0358 27.0759 36.6121 26.0976C36.1885 25.1193 35.57 24.24 34.7953 23.5145C33.9671 22.7346 32.9908 22.1333 31.9258 21.7471C30.8608 21.3608 29.7293 21.1977 28.6001 21.2678C26.5617 21.3866 24.6403 22.2702 23.2112 23.746C21.7731 25.2304 20.9545 27.1579 20.9473 29.1725C20.937 32.0992 22.6091 34.77 25.1339 36.1429V40.6873C25.1339 41.2248 25.6072 41.612 26.1384 41.612H32.0648C32.596 41.612 33.0693 41.2253 33.0693 40.6873V36.1611C35.5942 34.7601 37.2574 32.0916 37.2574 29.2003ZM22.891 29.179C22.9065 27.6504 23.5138 26.189 24.5824 25.1086C25.6762 23.9786 27.1471 23.3021 28.7076 23.2112C29.5744 23.1564 30.4431 23.2805 31.2609 23.5762C32.0787 23.8718 32.8285 24.3327 33.4648 24.9308C34.0465 25.4755 34.5108 26.1358 34.8287 26.8705C35.1466 27.6051 35.3112 28.3983 35.3123 29.2003C35.3123 31.5305 33.9056 33.6755 31.6968 34.665C31.5289 34.7426 31.3872 34.8682 31.2892 35.0264C31.1913 35.1847 31.1413 35.3685 31.1456 35.5552V35.6501H27.0577V35.5284C27.062 35.3396 27.0108 35.1537 26.9106 34.9944C26.8104 34.835 26.6657 34.7093 26.4949 34.6333C25.4296 34.1852 24.519 33.4282 23.8777 32.4577C23.2365 31.4872 22.8932 30.3465 22.891 29.179ZM27.0577 39.6653V37.5968H31.1456V39.6653H27.0577Z" fill="white"/>
<path d="M28.1387 15.5256V19.0906C28.1387 19.3488 28.24 19.5963 28.4204 19.7789C28.6008 19.9614 28.8454 20.064 29.1005 20.064C29.3556 20.064 29.6003 19.9614 29.7807 19.7789C29.9611 19.5963 30.0624 19.3488 30.0624 19.0906V15.5256C30.0624 15.2675 29.9611 15.0199 29.7807 14.8373C29.6003 14.6548 29.3556 14.5522 29.1005 14.5522C28.8454 14.5522 28.6008 14.6548 28.4204 14.8373C28.24 15.0199 28.1387 15.2675 28.1387 15.5256Z" fill="white"/>
<path d="M15.4033 27.8628C15.1482 27.8628 14.9035 27.9653 14.7231 28.1479C14.5427 28.3304 14.4414 28.578 14.4414 28.8362C14.4414 29.0943 14.5427 29.3419 14.7231 29.5244C14.9035 29.707 15.1482 29.8095 15.4033 29.8095H19.0697C19.3248 29.8095 19.5694 29.707 19.7498 29.5244C19.9302 29.3419 20.0315 29.0943 20.0315 28.8362C20.0315 28.578 19.9302 28.3304 19.7498 28.1479C19.5694 27.9653 19.3248 27.8628 19.0697 27.8628H15.4033Z" fill="white"/>
<path d="M43.76 28.8362C43.76 28.578 43.6587 28.3304 43.4783 28.1479C43.2979 27.9653 43.0533 27.8628 42.7982 27.8628H39.1318C38.8767 27.8628 38.632 27.9653 38.4516 28.1479C38.2713 28.3304 38.1699 28.578 38.1699 28.8362C38.1699 29.0943 38.2713 29.3419 38.4516 29.5244C38.632 29.707 38.8767 29.8095 39.1318 29.8095H42.7982C43.0533 29.8095 43.2979 29.707 43.4783 29.5244C43.6587 29.3419 43.76 29.0943 43.76 28.8362Z" fill="white"/>
<path d="M22.033 22.915C22.2254 22.9151 22.4134 22.8567 22.5726 22.7476C22.7319 22.6384 22.8552 22.4835 22.9265 22.3027C22.9979 22.1219 23.014 21.9236 22.9729 21.7335C22.9318 21.5433 22.8352 21.37 22.6958 21.2359L20.0854 18.7262C19.9004 18.5484 19.6533 18.4522 19.3982 18.4588C19.1432 18.4654 18.9012 18.5743 18.7255 18.7614C18.5498 18.9486 18.4547 19.1987 18.4613 19.4568C18.4678 19.7149 18.5754 19.9598 18.7603 20.1376L21.3709 22.6473C21.5494 22.8194 21.7865 22.9152 22.033 22.915Z" fill="white"/>
<path d="M38.1168 18.7262L35.5064 21.2359C35.3214 21.4138 35.2139 21.6586 35.2073 21.9167C35.2008 22.1748 35.2959 22.4249 35.4716 22.6121C35.6473 22.7993 35.8893 22.9081 36.1443 22.9147C36.3994 22.9213 36.6465 22.8252 36.8315 22.6473L39.4419 20.1376C39.6268 19.9598 39.7344 19.7149 39.7409 19.4568C39.7474 19.1987 39.6524 18.9486 39.4767 18.7614C39.301 18.5743 39.059 18.4654 38.8039 18.4588C38.5489 18.4522 38.3017 18.5484 38.1168 18.7262Z" fill="white"/>
</svg>
