<svg width="52" height="55" viewBox="0 0 52 55" fill="none" xmlns="http://www.w3.org/2000/svg">
<g clip-path="url(#clip0_501_3066)">
<path d="M49.646 15.0271C47.7914 12.1746 43.5167 11.2983 37.5914 12.4449C36.9516 12.5661 36.3025 12.7246 35.6442 12.8924C33.4929 5.07119 29.8116 0 25.5369 0C21.2622 0 17.5809 5.07119 15.4482 12.8924C14.7898 12.7246 14.1407 12.5661 13.5009 12.4449C7.55706 11.261 3.30088 12.1746 1.44634 15.0271C-0.88112 18.6441 1.26088 24.4983 6.88015 30.7627C1.42779 36.8966 -0.927484 42.8814 1.42779 46.4983C2.48488 48.1297 4.31161 49.1271 6.87088 49.4627L7.11197 47.5983C5.11833 47.3373 3.72743 46.6661 2.98561 45.4636C1.2887 42.8441 3.15252 37.7263 8.15052 32.0958C9.07779 33.028 10.0051 33.9602 11.0158 34.8364L12.2398 33.4475C11.2291 32.5153 10.2925 31.639 9.45797 30.7254C10.7361 29.4033 12.0792 28.1464 13.4823 26.9593C13.4823 27.5932 13.4823 28.2458 13.4823 28.8983C13.4823 30.1288 13.4823 31.3966 13.5843 32.6271L15.4389 32.5339C15.3369 31.3314 15.3369 30.0915 15.3369 28.8983C15.3369 27.7051 15.3369 26.5398 15.4203 25.4119C16.8391 24.3119 18.3505 23.2305 19.9825 22.1585C21.8371 20.9653 23.6916 19.8839 25.5462 18.9144C27.4007 19.8466 29.2552 20.9653 31.1098 22.1585C32.7418 23.2305 34.2532 24.3119 35.672 25.4025C35.7152 26.5398 35.7369 27.7051 35.7369 28.8983C35.7369 30.0915 35.7369 31.3314 35.6349 32.6271L37.4894 32.7203C37.5543 31.4432 37.5914 30.1754 37.5914 28.9915C37.5914 28.339 37.5914 27.6864 37.5914 27.0525C39.0059 28.2205 40.3614 29.4588 41.6529 30.7627C40.7812 31.6949 39.7983 32.6271 38.8711 33.4847L40.0951 34.8737C41.1243 33.9415 42.0702 33.0093 42.9603 32.133C47.9583 37.7263 49.8222 42.8814 48.1252 45.5008C47.3834 46.6568 45.9925 47.3652 43.9989 47.6356L44.24 49.5C46.7992 49.1644 48.626 48.1669 49.6831 46.5356C52.0383 42.8907 49.6831 36.9339 44.2307 30.7907C49.8129 24.4983 51.9549 18.6441 49.646 15.0271ZM25.5369 1.86441C28.6432 1.86441 31.8794 6.18051 33.8823 13.4051C31.012 14.2947 28.2205 15.4234 25.5369 16.7797C22.8544 15.4107 20.0629 14.2694 17.1914 13.3678C19.1943 6.18051 22.4305 1.86441 25.5369 1.86441ZM8.15979 29.3831C3.28233 23.9297 1.21452 18.7839 2.98561 16.0432C4.35797 13.9085 8.06706 13.2466 13.1856 14.272C13.7883 14.3932 14.4003 14.5424 15.0402 14.7008C14.3134 17.9102 13.8544 21.1749 13.6678 24.461C11.7289 25.9814 9.88907 27.6255 8.15979 29.3831ZM18.9718 20.6017C17.7942 21.3661 16.6722 22.1492 15.5872 22.9508C15.8039 20.3478 16.1974 17.7627 16.7649 15.2136C19.0687 15.9451 21.3183 16.8391 23.4969 17.889C21.9885 18.7218 20.4802 19.626 18.9718 20.6017ZM32.102 20.6017C30.6091 19.6229 29.0883 18.7373 27.5769 17.889C29.7555 16.8391 32.0051 15.9451 34.3089 15.2136C34.8764 17.7627 35.2698 20.3478 35.4865 22.9508C34.4016 22.1492 33.2796 21.3661 32.102 20.6017ZM37.4523 24.461C37.2658 21.1749 36.8067 17.9102 36.08 14.7008C36.7105 14.5424 37.3225 14.3932 37.9345 14.272C43.016 13.2653 46.7251 13.9085 48.1345 16.0432C49.9056 18.7839 47.81 23.9297 42.9603 29.3831C41.2311 27.6255 39.3913 25.9814 37.4523 24.461Z" fill="white"/>
<path d="M39.4452 41.9489H38.518C39.2964 41.362 39.8715 40.5436 40.1616 39.6099C40.4518 38.6761 40.4423 37.6742 40.1346 36.7462C39.8269 35.8181 39.2365 35.0109 38.4471 34.4389C37.6577 33.8669 36.7092 33.5591 35.7361 33.5591C34.7631 33.5591 33.8146 33.8669 33.0252 34.4389C32.2358 35.0109 31.6454 35.8181 31.3377 36.7462C31.03 37.6742 31.0205 38.6761 31.3107 39.6099C31.6008 40.5436 32.1759 41.362 32.9543 41.9489H32.0271C31.6745 41.9523 31.3244 42.0089 30.9885 42.1167C31.0632 41.7549 31.1004 41.3863 31.0998 41.0167C31.0998 39.5333 30.5136 38.1106 29.4702 37.0617C28.4269 36.0128 27.0117 35.4235 25.5361 35.4235C24.0606 35.4235 22.6454 36.0128 21.6021 37.0617C20.5587 38.1106 19.9725 39.5333 19.9725 41.0167C19.9719 41.3863 20.0091 41.7549 20.0838 42.1167C19.7479 42.0089 19.3978 41.9523 19.0452 41.9489H18.118C18.8964 41.362 19.4715 40.5436 19.7616 39.6099C20.0518 38.6761 20.0423 37.6742 19.7346 36.7462C19.4269 35.8181 18.8365 35.0109 18.0471 34.4389C17.2577 33.8669 16.3092 33.5591 15.3362 33.5591C14.3631 33.5591 13.4146 33.8669 12.6252 34.4389C11.8358 35.0109 11.2454 35.8181 10.9377 36.7462C10.63 37.6742 10.6205 38.6761 10.9107 39.6099C11.2008 40.5436 11.7759 41.362 12.5543 41.9489H11.6271C10.6433 41.9489 9.69993 42.3418 9.00434 43.0411C8.30875 43.7404 7.91797 44.6888 7.91797 45.6777V49.4065H16.2634V54.9998H34.8089V49.4065H43.1543V45.6777C43.1543 44.6888 42.7635 43.7404 42.068 43.0411C41.3724 42.3418 40.429 41.9489 39.4452 41.9489ZM35.7361 35.4235C36.2863 35.4235 36.8242 35.5875 37.2816 35.8948C37.7391 36.2021 38.0957 36.6389 38.3062 37.1499C38.5168 37.6609 38.5719 38.2232 38.4645 38.7657C38.3572 39.3082 38.0922 39.8065 37.7032 40.1976C37.3141 40.5887 36.8185 40.8551 36.2789 40.963C35.7392 41.0709 35.1799 41.0155 34.6716 40.8038C34.1633 40.5922 33.7288 40.2337 33.4232 39.7738C33.1175 39.3139 32.9543 38.7732 32.9543 38.2201C32.9543 37.4784 33.2474 36.7671 33.7691 36.2426C34.2908 35.7181 34.9984 35.4235 35.7361 35.4235ZM15.3362 35.4235C15.8863 35.4235 16.4242 35.5875 16.8816 35.8948C17.3391 36.2021 17.6957 36.6389 17.9062 37.1499C18.1168 37.6609 18.1719 38.2232 18.0645 38.7657C17.9572 39.3082 17.6922 39.8065 17.3032 40.1976C16.9141 40.5887 16.4185 40.8551 15.8789 40.963C15.3392 41.0709 14.7799 41.0155 14.2716 40.8038C13.7633 40.5922 13.3288 40.2337 13.0232 39.7738C12.7175 39.3139 12.5543 38.7732 12.5543 38.2201C12.5543 37.4784 12.8474 36.7671 13.3691 36.2426C13.8908 35.7181 14.5984 35.4235 15.3362 35.4235ZM25.5361 37.2879C26.2697 37.2879 26.9869 37.5066 27.5968 37.9163C28.2068 38.326 28.6822 38.9084 28.9629 39.5898C29.2436 40.2711 29.3171 41.0208 29.174 41.7442C29.0309 42.4675 28.6776 43.1319 28.1589 43.6534C27.6401 44.1749 26.9792 44.53 26.2598 44.6739C25.5403 44.8178 24.7945 44.7439 24.1167 44.4617C23.439 44.1795 22.8597 43.7015 22.4522 43.0883C22.0446 42.4751 21.8271 41.7542 21.8271 41.0167C21.8271 40.0278 22.2178 39.0793 22.9134 38.38C23.609 37.6808 24.5524 37.2879 25.5361 37.2879ZM9.77251 47.5421V45.6777C9.77251 45.1833 9.9679 44.709 10.3157 44.3594C10.6635 44.0098 11.1352 43.8133 11.6271 43.8133H19.0452C19.5371 43.8133 20.0088 44.0098 20.3566 44.3594C20.7044 44.709 20.8998 45.1833 20.8998 45.6777H19.9725C19.3252 45.6817 18.6902 45.8558 18.1306 46.1829C17.571 46.51 17.1063 46.9786 16.7827 47.5421H9.77251ZM32.9543 53.1354H18.118V49.4065C18.118 48.9121 18.3134 48.4379 18.6612 48.0882C19.0089 47.7386 19.4807 47.5421 19.9725 47.5421H31.0998C31.5916 47.5421 32.0634 47.7386 32.4111 48.0882C32.7589 48.4379 32.9543 48.9121 32.9543 49.4065V53.1354ZM41.2998 47.5421H34.2896C33.966 46.9786 33.5013 46.51 32.9417 46.1829C32.3821 45.8558 31.7471 45.6817 31.0998 45.6777H30.1725C30.1725 45.1833 30.3679 44.709 30.7157 44.3594C31.0635 44.0098 31.5352 43.8133 32.0271 43.8133H39.4452C39.9371 43.8133 40.4088 44.0098 40.7566 44.3594C41.1044 44.709 41.2998 45.1833 41.2998 45.6777V47.5421Z" fill="white"/>
</g>
<defs>
<clipPath id="clip0_501_3066">
<rect width="51" height="55" fill="white" transform="translate(0.5)"/>
</clipPath>
</defs>
</svg>
