<svg width="52" height="55" viewBox="0 0 52 55" fill="none" xmlns="http://www.w3.org/2000/svg">
<g clip-path="url(#clip0_501_3029)">
<path d="M1.44498 42.4742C2.77528 44.4169 5.37029 45.4105 8.93961 45.4105C10.5136 45.3936 12.0822 45.2332 13.6237 44.9315C14.4388 44.7806 15.2632 44.5855 16.1063 44.3726C18.3079 50.875 21.8116 55 25.8025 55C29.7934 55 33.2971 50.875 35.4799 44.3548C36.3231 44.5677 37.1475 44.7629 37.9625 44.9137C39.5041 45.215 41.0727 45.3754 42.6467 45.3927C46.2066 45.3927 48.8016 44.3992 50.1413 42.4565C52.5209 38.9968 50.1413 33.3194 44.6328 27.4823C50.1881 21.6452 52.5209 15.95 50.1413 12.5081C48.2677 9.79355 43.9489 8.95968 37.9625 10.0508C37.1475 10.2016 36.3231 10.3968 35.4799 10.6097C33.2971 4.125 29.7934 0 25.8025 0C21.8116 0 18.3079 4.125 16.1251 10.6452C15.2819 10.4323 14.4575 10.2371 13.6425 10.0863C7.63741 8.95968 3.33737 9.82903 1.46372 12.5435C-0.934562 15.9677 1.44498 21.6629 6.95353 27.5C1.44498 33.3371 -0.934562 39.0323 1.44498 42.4742ZM25.8025 53.2258C22.9264 53.2258 19.9286 49.7661 17.9144 43.8669C20.6236 43.042 23.2609 42.0187 25.8025 40.8064C28.343 42.0308 30.9803 43.066 33.6906 43.9024C31.6764 49.7661 28.6786 53.2258 25.8025 53.2258ZM15.4974 27.5C15.4974 25.7258 15.5692 23.9989 15.7129 22.3194C17.0994 21.2903 18.5889 20.2968 20.1815 19.3121C22.0552 18.1766 23.9289 17.1476 25.8025 16.225C27.6762 17.1121 29.5498 18.1766 31.4235 19.3121C33.0255 20.2968 34.515 21.3081 35.9015 22.3194C36.0389 23.9989 36.1076 25.7258 36.1076 27.5C36.1076 29.2742 36.0358 31.0011 35.8922 32.6806C34.5056 33.7097 33.0161 34.7032 31.4235 35.6879C29.5498 36.8234 27.6762 37.8524 25.8025 38.775C23.9289 37.8879 22.0552 36.8234 20.1815 35.6879C18.5796 34.7032 17.09 33.6919 15.7035 32.6806C15.5661 31.0306 15.4974 29.3038 15.4974 27.5ZM13.7268 31.1815C12.1717 29.9484 10.7571 28.7153 9.5017 27.5C10.7571 26.2847 12.1717 25.0516 13.7268 23.8185C13.6237 25.0161 13.6237 26.2492 13.6237 27.5C13.6237 28.7508 13.6237 29.9839 13.7268 31.1815ZM15.9564 19.9242C16.2481 17.5289 16.724 15.157 17.3804 12.8274C19.5546 13.5017 21.6795 14.3107 23.7415 15.2492C22.2176 16.0358 20.6937 16.8962 19.1698 17.8306C18.0549 18.5137 16.987 19.2145 15.9564 19.9242ZM27.8635 15.2492C29.9285 14.3103 32.0566 13.5013 34.234 12.8274C34.8904 15.157 35.3663 17.5289 35.6579 19.9242C34.6274 19.2145 33.5594 18.5137 32.4446 17.8306C30.9207 16.9022 29.3937 16.0417 27.8635 15.2492ZM37.8782 23.8185C39.4334 25.0516 40.848 26.2847 42.1033 27.5C40.848 28.7153 39.4334 29.9484 37.8782 31.1815C37.9813 29.9839 37.9813 28.7508 37.9813 27.5C37.9813 26.2492 37.9813 25.0161 37.8782 23.8185ZM35.6486 35.0758C35.3569 37.4711 34.881 39.843 34.2246 42.1726C32.0504 41.4983 29.9255 40.6893 27.8635 39.7508C29.3874 38.9583 30.9114 38.0979 32.4353 37.1694C33.5501 36.4863 34.6181 35.7855 35.6486 35.0758ZM19.1698 37.1694C20.6874 38.1038 22.2113 38.9642 23.7415 39.7508C21.6765 40.6897 19.5484 41.4987 17.3711 42.1726C16.7147 39.843 16.2387 37.4711 15.9471 35.0758C16.987 35.7855 18.0549 36.4863 19.1698 37.1694ZM48.5862 41.5073C47.1997 43.5387 43.4524 44.1685 38.2811 43.1927C37.5316 43.0508 36.7634 42.8734 35.9765 42.6694C36.8103 39.7017 37.3714 36.6713 37.6534 33.6121C39.6565 32.1241 41.556 30.5151 43.3399 28.7952C48.4269 34.1532 50.3006 39.0323 48.5862 41.5073ZM38.2811 11.8073C39.7113 11.5254 41.1672 11.3768 42.6279 11.3637C45.5134 11.3637 47.5931 12.0911 48.5487 13.4927C50.2631 15.9855 48.3894 20.8468 43.3399 26.2048C41.556 24.4849 39.6565 22.8759 37.6534 21.3879C37.3837 18.3297 36.8351 15.2993 36.0139 12.3306C36.8009 12.1266 37.5691 11.9492 38.3185 11.8073H38.2811ZM25.8025 1.77419C28.6786 1.77419 31.6764 5.23387 33.6906 11.1331C30.9814 11.9581 28.3441 12.9813 25.8025 14.1935C23.262 12.9692 20.6247 11.934 17.9144 11.0976C19.9286 5.23387 22.9264 1.77419 25.8025 1.77419ZM3.01885 13.4927C3.95568 12.0911 6.05417 11.3637 8.93961 11.3637C10.4004 11.3768 11.8563 11.5254 13.2865 11.8073C14.0359 11.9492 14.8041 12.1266 15.5911 12.3306C14.7572 15.2983 14.1962 18.3287 13.9142 21.3879C11.911 22.8759 10.0116 24.4849 8.22762 26.2048C3.17811 20.8468 1.30446 15.9677 3.01885 13.4927ZM8.22762 28.7952C10.0116 30.5151 11.911 32.1241 13.9142 33.6121C14.1962 36.6713 14.7572 39.7017 15.5911 42.6694C14.8041 42.8734 14.0359 43.0508 13.2865 43.1927C8.15267 44.1508 4.40536 43.5387 2.98138 41.5073C1.30446 39.0323 3.17811 34.1532 8.22762 28.7952Z" fill="white"/>
<path d="M23.9284 33.1952C24.4531 33.6565 24.8653 34.0823 25.1369 34.2952L25.8396 35.0492L26.5422 34.2952C26.767 34.0557 27.2261 33.6565 27.7507 33.1952C29.8492 31.3766 33.025 28.6266 33.025 26.2049C33.0178 25.6652 32.8975 25.1322 32.6712 24.6368C32.4449 24.1415 32.1171 23.6935 31.7067 23.3189C31.2963 22.9444 30.8115 22.6506 30.2804 22.4547C29.7493 22.2587 29.1824 22.1645 28.6126 22.1774C27.5822 22.1806 26.5865 22.5295 25.8021 23.1621C25.0177 22.5295 24.0219 22.1806 22.9916 22.1774C21.8519 22.168 20.7546 22.5864 19.9399 23.3412C19.1252 24.096 18.6595 25.1257 18.6447 26.2049C18.6166 28.6266 21.7925 31.3766 23.9284 33.1952ZM22.9916 23.9516C23.397 23.9494 23.7968 24.0412 24.1561 24.2191C24.5153 24.3969 24.8232 24.6553 25.0526 24.9718L25.8021 26.0452L26.5797 24.9718C26.8064 24.659 27.1098 24.4029 27.4638 24.2253C27.8178 24.0476 28.2119 23.9537 28.6126 23.9516C29.2554 23.9421 29.8762 24.1736 30.3395 24.5957C30.8028 25.0178 31.071 25.5962 31.0858 26.2049C31.0858 27.846 28.0505 30.4807 26.4017 31.8912L25.7552 32.4589L25.1557 31.9355C23.5256 30.525 20.4715 27.8903 20.4715 26.2492C20.4726 25.9402 20.5392 25.6346 20.6674 25.3505C20.7956 25.0664 20.9828 24.8095 21.2179 24.5952C21.4529 24.3809 21.731 24.2135 22.0357 24.103C22.3404 23.9924 22.6655 23.9409 22.9916 23.9516Z" fill="white"/>
</g>
<defs>
<clipPath id="clip0_501_3029">
<rect width="51" height="55" fill="white" transform="translate(0.5)"/>
</clipPath>
</defs>
</svg>
